<?xml version="1.0" encoding="UTF-8" standalone="no"?>
<svg xmlns="http://www.w3.org/2000/svg" version="1.2" baseProfile="tiny" viewBox="0 0 500 500">
<g stroke-width="0.30" fill="none" stroke-linecap="butt">
<path stroke="#b43b69" vector-effect="non-scaling-stroke" d="
  M 249.81 0.00
  L 250.00 0.71"
/>
<path stroke="#b16268" vector-effect="non-scaling-stroke" d="
  M 250.00 0.71
  Q 247.62 2.19 245.40 3.89
  Q 189.28 47.01 133.21 89.67
  A 1.01 1.00 60.2 0 1 131.68 89.25
  Q 119.12 59.01 89.50 45.04"
/>
<path stroke="#b9676e" vector-effect="non-scaling-stroke" d="
  M 89.50 45.04
  Q 63.48 33.34 36.51 39.50
  Q 16.94 43.97 0.17 57.45"
/>
<path stroke="#9d3f98" vector-effect="non-scaling-stroke" d="
  M 393.31 0.00
  L 396.29 11.87"
/>
<path stroke="#a4719c" vector-effect="non-scaling-stroke" d="
  M 396.29 11.87
  L 388.50 11.04"
/>
<path stroke="#ac77a2" vector-effect="non-scaling-stroke" d="
  M 388.50 11.04
  Q 355.16 8.71 329.75 29.71"
/>
<path stroke="#a4719c" vector-effect="non-scaling-stroke" d="
  M 329.75 29.71
  Q 320.18 37.28 313.37 47.56
  A 1.01 1.00 35.4 0 1 311.93 47.80
  L 250.00 0.71"
/>
<path stroke="#966494" vector-effect="non-scaling-stroke" d="
  M 500.00 189.81
  L 499.87 190.09
  A 0.80 0.80 0.0 0 1 498.66 190.39
  L 445.00 149.40
  A 1.01 1.00 -50.7 0 1 444.86 147.94
  Q 455.14 136.22 460.25 121.29"
/>
<path stroke="#9a6697" vector-effect="non-scaling-stroke" d="
  M 460.25 121.29
  C 463.98 111.32 464.82 102.69 464.80 92.13
  C 464.75 51.91 435.46 18.80 396.29 11.87"
/>
<path stroke="#a99ea1" vector-effect="non-scaling-stroke" d="
  M 329.75 29.71
  Q 330.64 30.03 330.17 30.91
  A 0.24 0.16 -69.9 0 0 330.25 31.25
  L 330.58 31.24
  Q 331.14 31.23 330.79 31.67
  Q 326.99 36.38 326.56 37.57
  Q 326.04 39.03 326.56 38.57
  Q 327.19 38.00 327.10 38.85
  Q 327.06 39.26 327.02 39.67
  Q 326.93 40.42 326.56 41.10
  Q 323.99 45.77 322.07 50.75
  Q 321.86 51.29 321.85 50.72
  L 321.85 50.31
  Q 321.85 49.42 321.45 50.22
  L 320.87 51.40
  Q 318.53 56.15 319.37 50.92
  L 319.44 50.44
  Q 319.69 48.90 318.84 50.21
  Q 316.55 53.75 316.23 58.24
  C 316.08 60.31 314.78 62.08 314.38 63.95
  Q 312.75 71.55 311.08 79.14
  C 310.61 81.26 310.90 83.49 310.84 85.70
  Q 310.82 86.55 310.92 85.73
  Q 311.69 79.64 313.34 73.72
  Q 314.60 69.22 313.98 73.85
  Q 313.92 74.35 313.82 74.85
  C 310.63 92.35 312.33 113.44 320.51 129.42
  C 327.69 143.44 338.21 153.34 352.73 159.14
  C 367.66 165.10 382.45 166.28 398.26 163.58
  C 403.83 162.63 408.76 159.75 414.47 157.51
  C 421.50 154.75 427.32 149.60 432.70 144.51
  C 437.26 140.21 441.91 133.20 444.55 128.56
  Q 453.29 113.22 454.25 94.74
  Q 454.28 94.16 454.07 93.83
  A 1.24 0.28 53.5 0 1 453.71 93.02
  Q 453.89 82.42 452.24 77.76
  C 450.76 73.58 450.23 69.43 448.00 65.52
  Q 444.94 60.15 442.92 54.25
  Q 442.84 54.02 442.67 53.85
  L 437.92 49.25
  A 1.01 1.00 18.0 0 1 437.62 48.67
  C 437.31 46.37 434.61 45.11 432.79 44.09
  A 1.00 0.96 4.1 0 1 432.35 43.60
  Q 431.62 41.87 429.85 41.50
  A 0.99 0.97 81.4 0 1 429.17 40.99
  Q 427.60 38.03 425.02 35.93
  C 423.71 34.87 423.07 33.42 421.68 32.46
  C 416.80 29.13 412.98 25.79 407.34 23.56
  A 0.98 0.97 83.4 0 1 406.89 23.20
  C 405.10 20.63 402.39 20.37 400.15 19.01
  Q 396.73 16.93 392.69 16.37
  A 0.93 0.92 -22.1 0 1 392.21 16.17
  Q 390.21 14.60 388.35 12.89
  C 387.75 12.33 385.80 11.32 388.50 11.04"
/>
<path stroke="#9d9698" vector-effect="non-scaling-stroke" d="
  M 460.25 121.29
  L 457.56 124.05
  A 1.00 0.94 73.5 0 0 457.29 124.59
  Q 456.84 127.35 454.89 129.23
  A 0.41 0.41 0.0 0 0 454.76 129.55
  L 454.82 130.30
  A 0.96 0.93 -33.3 0 1 454.70 130.83
  L 452.13 135.73
  A 1.04 1.01 2.4 0 1 451.63 136.18
  Q 450.92 136.48 450.94 137.15
  A 0.81 0.81 0.0 0 1 450.47 137.90
  Q 449.12 138.51 448.97 139.91
  A 1.12 1.05 -26.0 0 1 448.78 140.41
  C 443.46 147.45 433.99 156.07 427.71 160.96
  C 425.06 163.02 419.45 165.33 415.17 167.39
  Q 411.97 168.93 408.48 169.75
  Q 408.30 169.79 408.14 169.90
  L 407.06 170.64
  A 0.98 0.97 -56.2 0 1 406.32 170.79
  Q 404.38 170.44 402.81 171.48
  Q 402.62 171.60 402.40 171.63
  L 398.30 172.21
  A 1.05 0.97 -66.9 0 0 397.81 172.43
  C 394.91 174.79 389.11 173.82 384.89 174.74
  C 382.90 175.17 381.31 174.71 379.29 174.74
  Q 377.31 174.76 375.18 174.22
  Q 372.90 173.64 370.51 173.64
  A 1.01 0.99 72.8 0 1 369.68 173.19
  C 368.96 172.10 361.43 171.13 356.03 170.19
  A 1.06 1.02 -58.8 0 0 355.23 170.40
  Q 353.75 171.58 352.37 170.19
  A 1.00 0.97 65.7 0 0 351.63 169.90
  Q 347.86 170.01 345.43 167.33
  A 1.00 0.97 -20.0 0 0 344.69 167.00
  L 342.12 166.99
  A 1.01 0.99 76.3 0 1 341.23 166.44
  Q 339.87 163.75 336.73 161.28
  C 327.86 154.29 317.81 144.12 312.71 132.98
  Q 312.65 132.84 312.58 132.99
  L 312.52 133.15
  Q 312.37 133.50 312.12 133.15
  C 309.39 129.27 308.52 122.85 306.63 118.25
  C 305.14 114.59 305.72 110.65 304.11 106.69
  Q 304.01 106.44 304.05 106.18
  Q 304.38 103.74 303.77 100.24
  Q 302.47 92.89 303.55 84.10
  A 1.00 0.99 -60.1 0 0 303.36 83.38
  Q 302.12 81.72 303.30 80.38
  A 1.00 0.98 68.6 0 0 303.54 79.82
  Q 304.57 69.49 307.05 59.42
  C 307.70 56.78 309.31 47.44 302.97 50.08
  Q 299.87 51.37 296.66 52.26
  Q 296.42 52.32 296.24 52.49
  C 293.84 54.76 290.90 55.67 288.74 57.90
  Q 287.00 59.70 285.29 61.55
  Q 284.25 62.68 282.27 62.60
  A 0.99 0.98 -84.5 0 0 281.25 63.45
  L 281.00 65.04"
/>
<path stroke="#b7998f" vector-effect="non-scaling-stroke" d="
  M 281.00 65.04
  L 225.90 23.08
  A 1.00 1.00 0.0 0 0 224.75 23.03
  L 218.52 27.04
  Q 218.33 27.17 218.21 27.37
  Q 217.23 29.02 215.37 29.35
  A 1.04 1.01 -75.4 0 0 214.76 29.72
  Q 213.39 31.45 211.43 32.23
  A 0.95 0.93 -82.4 0 0 211.02 32.55
  C 209.14 34.97 206.48 36.29 204.46 38.15
  C 201.55 40.83 198.10 42.52 195.25 45.11
  Q 193.24 46.94 191.08 48.60
  Q 162.53 70.53 133.79 92.30
  A 1.00 0.99 -27.7 0 0 133.44 93.40
  Q 135.53 99.76 135.73 106.18"
/>
<path stroke="#9d9698" vector-effect="non-scaling-stroke" d="
  M 135.73 106.18
  Q 133.65 112.21 133.97 118.50
  C 134.19 122.93 133.51 126.32 133.15 130.46
  C 132.97 132.54 131.82 134.26 131.11 136.23
  Q 130.93 136.72 130.97 136.20
  L 130.99 135.93
  Q 131.13 134.34 130.59 135.84
  Q 127.66 143.88 124.20 151.73
  Q 121.33 158.23 117.28 163.99
  C 114.48 167.99 110.48 171.31 106.78 174.76
  C 99.20 181.80 91.71 185.55 83.06 190.12
  C 78.86 192.34 73.68 192.67 69.12 194.31
  C 67.35 194.94 65.33 194.97 63.49 195.55
  Q 60.66 196.43 59.36 196.58
  C 48.11 197.80 36.39 197.03 25.91 192.52
  Q 21.96 190.82 17.69 190.02
  Q 17.47 189.98 17.29 189.85
  L 14.29 187.68
  Q 14.09 187.54 14.21 187.52
  L 14.36 187.49
  Q 14.53 187.46 14.42 187.37
  C 12.49 185.84 6.26 184.17 5.87 182.30
  A 1.03 1.02 -77.9 0 0 5.48 181.69
  Q 3.01 179.88 0.00 179.19"
/>
<path stroke="#a99ea1" vector-effect="non-scaling-stroke" d="
  M -0.08 169.79
  Q 2.97 171.98 5.40 174.79
  C 7.18 176.84 9.58 178.42 11.81 180.68
  C 14.03 182.93 18.96 184.13 21.51 185.29
  Q 28.82 188.59 38.28 190.90
  C 42.87 192.01 46.93 191.24 50.54 191.37
  Q 60.26 191.73 67.50 189.21
  C 71.71 187.75 75.54 186.82 79.17 184.93
  Q 84.42 182.20 90.11 180.40
  Q 90.32 180.33 90.49 180.19
  C 94.54 176.47 99.46 173.13 103.06 169.76
  Q 114.09 159.44 120.13 145.66
  C 123.66 137.61 126.17 132.40 126.98 125.06
  A 1.03 1.01 34.5 0 0 126.87 124.49
  C 125.83 122.46 127.19 121.41 127.51 119.94
  C 128.62 114.82 127.43 110.30 128.07 105.09
  A 0.28 0.28 0.0 0 0 128.00 104.88
  L 127.83 104.69
  A 0.98 0.94 22.4 0 1 127.56 104.08
  Q 127.23 98.74 125.01 93.90
  A 0.26 0.25 -13.1 0 0 124.76 93.75
  L 124.46 93.76
  A 0.51 0.50 78.2 0 1 123.96 93.43
  Q 120.45 83.69 118.18 80.33
  Q 115.41 76.23 114.77 73.76
  C 114.62 73.17 113.02 72.08 112.53 71.32
  C 108.87 65.66 104.22 61.36 101.00 55.42
  A 1.00 0.99 77.7 0 0 100.20 54.90
  Q 97.64 54.69 97.57 52.15
  A 1.01 1.01 0.0 0 0 97.30 51.49
  L 94.89 48.95
  A 1.03 1.02 -22.4 0 0 94.13 48.64
  Q 90.25 48.78 89.50 45.04"
/>
<path stroke="#b6a8ac" vector-effect="non-scaling-stroke" d="
  M 332.26 58.30
  Q 332.42 57.61 332.00 57.94
  Q 331.33 58.47 331.68 57.69
  L 333.48 53.72
  Q 335.09 50.18 332.62 53.18
  Q 332.51 53.31 332.41 53.45
  C 330.84 55.39 330.47 58.33 329.21 60.68
  Q 327.80 63.31 327.27 65.02
  C 325.66 70.23 323.69 75.25 323.11 80.58
  C 321.43 95.96 322.39 110.04 329.88 123.85
  C 330.56 125.10 331.04 126.88 332.00 128.26
  C 349.52 153.50 382.34 161.98 409.75 147.76
  C 440.47 131.81 454.27 93.80 435.78 63.52
  C 434.80 61.92 434.70 59.36 433.52 58.23
  Q 427.49 52.41 422.57 45.61
  A 0.98 0.97 -5.6 0 0 422.15 45.27
  Q 415.17 42.33 409.47 37.54
  Q 407.47 35.87 405.28 35.04
  Q 404.00 34.55 402.72 34.04
  Q 399.72 32.86 402.49 34.51
  L 402.99 34.81
  Q 404.82 35.90 403.02 35.19
  Q 396.34 32.55 389.14 31.88
  Q 388.97 31.86 388.81 31.79
  C 387.18 31.04 375.87 26.71 375.02 28.76
  A 0.63 0.62 13.0 0 1 374.38 29.15
  Q 367.72 28.67 361.51 31.04
  Q 360.73 31.33 361.75 31.25
  L 362.01 31.23
  Q 363.24 31.14 361.94 31.52
  Q 357.87 32.72 353.26 36.26
  C 351.45 37.65 343.79 42.36 343.66 44.29
  A 1.05 1.04 -21.1 0 1 343.37 44.93
  L 334.19 54.10
  A 1.04 1.04 0.0 0 0 333.90 54.77
  Q 333.82 56.84 332.86 58.54
  Q 331.72 60.57 332.26 58.30"
/>
<path stroke="#b3978c" vector-effect="non-scaling-stroke" d="
  M 281.00 65.04
  L 300.77 80.30
  A 1.00 0.99 -58.5 0 1 301.06 81.52
  C 299.29 85.24 298.89 99.43 300.31 103.20
  C 301.06 105.19 300.79 108.14 301.08 109.64
  Q 302.95 119.08 306.68 127.97
  A 0.27 0.26 -34.9 0 1 306.62 128.26
  L 306.42 128.45
  A 0.33 0.33 0.0 0 1 305.99 128.48
  L 213.03 57.58
  A 1.00 0.99 44.7 0 0 211.82 57.58
  L 138.97 113.31
  Q 137.47 114.46 137.37 112.56
  L 137.21 109.51
  A 1.02 1.01 -74.4 0 0 136.78 108.74
  Q 135.71 108.00 135.73 106.18"
/>
<path stroke="#c2b2b6" vector-effect="non-scaling-stroke" d="
  M 416.34 50.79
  Q 416.28 50.73 416.21 50.69
  Q 407.82 45.39 400.56 41.69
  C 393.54 38.11 384.98 37.91 376.80 37.58
  C 368.53 37.24 358.45 40.46 352.39 46.57
  C 351.53 47.44 350.28 47.94 349.49 48.75
  Q 348.19 50.08 343.32 55.39
  C 341.31 57.58 340.34 60.49 338.52 62.98
  Q 333.77 69.46 332.17 77.10
  C 330.82 83.57 329.88 89.13 330.30 95.74
  C 331.91 121.57 348.42 141.21 374.00 145.91
  Q 374.46 146.00 374.74 145.90
  Q 375.56 145.60 375.58 145.60
  C 384.49 146.49 393.76 146.24 402.03 142.86
  C 424.62 133.62 437.91 114.95 436.28 90.45
  Q 434.72 67.21 416.34 50.79"
/>
<path stroke="#d6bfc5" vector-effect="non-scaling-stroke" d="
  M 406.25 118.50
  L 406.23 118.75
  Q 406.18 119.16 406.54 118.83
  Q 414.81 111.29 417.70 98.52
  C 419.39 91.06 417.93 88.12 414.92 80.48
  Q 413.52 76.94 411.66 73.61
  C 410.19 70.98 407.69 69.58 405.51 67.44
  C 394.51 56.69 379.02 55.63 365.62 62.38
  Q 365.42 62.49 365.20 62.49
  L 364.32 62.51
  A 0.98 0.98 0.0 0 0 363.68 62.77
  Q 360.36 65.74 357.85 69.35
  C 355.66 72.49 352.65 75.70 350.82 79.38
  Q 350.76 79.49 350.67 79.52
  A 0.41 0.17 -10.0 0 0 350.43 79.67
  C 344.01 93.02 346.31 105.87 356.39 116.20
  C 359.83 119.72 362.36 122.25 366.50 125.02
  Q 373.60 129.75 381.70 129.43
  Q 391.02 129.07 381.70 128.62
  L 376.26 128.35
  A 0.50 0.48 74.8 0 1 375.86 128.11
  Q 375.53 127.61 376.50 127.73
  C 388.13 129.17 396.30 125.22 406.03 118.42
  Q 406.28 118.25 406.25 118.50"
/>
<path stroke="#bbaaaf" vector-effect="non-scaling-stroke" d="
  M -0.02 145.69
  Q 0.76 148.03 2.85 149.33
  Q 3.07 149.47 3.20 149.71
  C 5.87 154.68 9.23 158.92 13.67 162.40
  C 16.16 164.36 17.51 168.06 21.33 168.05
  A 1.00 0.97 -22.9 0 1 22.00 168.31
  Q 25.24 171.25 29.15 173.13
  C 30.89 173.97 32.91 173.95 34.81 174.75
  C 41.25 177.46 50.92 177.76 57.67 176.17
  C 58.28 176.03 62.31 175.17 62.54 175.76
  A 0.20 0.19 -16.8 0 0 62.77 175.88
  C 89.53 170.51 108.14 147.19 110.97 120.65
  C 111.24 118.10 111.05 114.78 111.42 111.80
  A 0.98 0.98 0.0 0 0 111.28 111.17
  C 109.13 107.58 110.16 104.56 109.00 101.13
  C 108.86 100.71 106.25 94.10 106.63 93.77
  A 0.52 0.51 -34.8 0 0 106.75 93.15
  C 103.98 87.71 101.63 85.03 99.65 80.91
  C 97.84 77.15 94.41 76.09 92.08 72.74
  C 89.57 69.15 86.66 69.07 83.35 67.00
  C 79.02 64.28 74.66 61.15 69.89 59.72
  C 60.87 57.00 51.88 56.30 42.59 58.88
  C 25.65 63.57 11.54 73.31 3.21 89.43
  Q 2.32 91.13 0.00 91.44"
/>
<path stroke="#b3a754" vector-effect="non-scaling-stroke" d="
  M 500.00 192.31
  Q 499.00 191.69 498.62 192.92
  Q 481.01 250.47 463.29 308.00"
/>
<path stroke="#b0a84b" vector-effect="non-scaling-stroke" d="
  M 463.29 308.00
  L 443.64 371.51
  A 1.01 1.00 34.4 0 0 443.82 372.44
  C 473.54 408.21 468.09 460.90 432.39 490.22
  C 428.47 493.44 423.53 496.39 419.00 499.29"
/>
<path stroke="#969294" vector-effect="non-scaling-stroke" d="
  M 419.00 499.29
  L 414.94 500.00"
/>
<path stroke="#a59b9e" vector-effect="non-scaling-stroke" d="
  M 396.87 499.88
  Q 403.16 496.45 409.52 493.17
  Q 411.94 491.92 414.96 489.61
  C 422.77 483.64 429.67 477.95 437.27 468.42
  A 1.14 1.06 -24.5 0 0 437.47 467.94
  C 437.76 466.00 439.39 464.74 440.05 463.49
  C 442.97 458.03 446.52 452.56 448.33 446.72
  Q 449.59 442.68 450.68 438.58
  C 451.26 436.40 450.55 434.24 451.85 431.93
  A 0.90 0.89 59.8 0 0 451.98 431.43
  C 451.92 427.21 452.41 423.06 451.78 418.98
  C 450.54 410.95 449.64 404.10 446.19 397.55
  C 445.21 395.70 445.47 393.80 444.09 392.01
  Q 442.39 389.82 442.01 389.03
  Q 438.82 382.50 433.47 377.51
  C 432.91 376.99 432.85 376.09 432.22 375.55
  C 427.92 371.80 423.70 367.55 418.78 364.72
  Q 415.63 362.91 412.41 361.21
  C 410.44 360.18 407.75 358.03 404.84 357.52
  Q 400.76 356.82 400.62 356.78
  C 395.87 355.68 390.63 355.26 384.82 353.85
  C 380.76 352.86 376.59 353.92 372.40 353.94
  A 0.38 0.28 15.2 0 0 372.14 354.04
  L 371.97 354.22
  A 0.65 0.65 0.0 0 1 371.58 354.42
  C 341.22 358.27 316.89 379.72 308.95 409.23
  C 304.09 427.27 307.08 446.56 312.18 463.23
  Q 312.21 463.33 312.26 463.42
  C 317.60 473.20 325.68 484.19 335.81 490.66
  C 337.98 492.04 340.73 492.33 342.96 494.42
  A 1.00 0.92 -16.5 0 0 343.47 494.67
  Q 345.38 495.01 347.19 494.54
  A 1.02 1.01 55.3 0 1 348.04 494.70
  Q 352.45 497.95 357.44 500.00"
/>
<path stroke="#969294" vector-effect="non-scaling-stroke" d="
  M 345.69 500.00
  Q 342.81 499.37 339.94 500.00"
/>
<path stroke="#c57479" vector-effect="non-scaling-stroke" d="
  M 329.44 500.00
  L 331.65 493.13
  A 1.00 1.00 0.0 0 0 331.33 492.05
  L 326.69 488.26
  Q 324.22 486.25 323.29 489.43
  L 320.19 500.00"
/>
<path stroke="#6ca7c5" vector-effect="non-scaling-stroke" d="
  M 313.20 500.09
  L 318.76 481.82
  A 1.01 1.01 0.0 0 0 318.59 480.91
  L 313.18 473.96
  Q 312.02 472.47 311.44 474.27
  L 303.13 500.07"
/>
<path stroke="#a0c9c9" vector-effect="non-scaling-stroke" d="
  M 295.94 500.00
  L 307.00 464.46
  A 0.95 0.94 -48.7 0 0 306.96 463.76
  L 302.52 453.81
  Q 301.44 451.38 300.65 453.92
  L 286.44 500.00"
/>
<path stroke="#cc9363" vector-effect="non-scaling-stroke" d="
  M 279.69 500.00
  L 299.53 436.40
  Q 299.60 436.18 299.57 435.95
  Q 298.09 426.28 299.49 415.26
  Q 299.95 411.64 298.25 409.79"
/>
<path stroke="#cc987a" vector-effect="non-scaling-stroke" d="
  M 298.25 409.79
  Q 298.93 409.74 299.01 409.31
  C 301.68 395.59 307.50 384.99 315.90 373.90
  C 321.41 366.63 323.31 356.90 325.98 348.06
  A 1.00 0.99 27.1 0 0 325.63 346.98
  L 113.74 185.12
  A 1.00 0.99 44.7 0 0 112.53 185.12
  L -0.23 271.14"
/>
<path stroke="#a0c9c9" vector-effect="non-scaling-stroke" d="
  M 0.37 264.19
  L 84.70 199.80
  Q 88.45 196.94 83.86 198.03
  C 79.42 199.09 72.69 200.48 68.60 203.59
  Q 34.21 229.78 -0.14 256.00"
/>
<path stroke="#6ca7c5" vector-effect="non-scaling-stroke" d="
  M 0.00 248.44
  Q 0.05 248.64 0.13 248.79
  A 0.52 0.51 -32.3 0 0 0.90 248.96
  L 59.09 204.35
  Q 60.77 203.06 58.71 202.58
  C 51.45 200.90 48.78 203.56 42.57 208.33
  Q 21.18 224.75 -0.28 241.08"
/>
<path stroke="#c57175" vector-effect="non-scaling-stroke" d="
  M 0.28 234.34
  L 41.40 203.21
  Q 43.11 201.92 41.02 201.43
  L 34.38 199.89
  A 1.00 1.00 0.0 0 0 33.55 200.08
  L 3.54 223.04
  A 1.01 1.00 -22.7 0 1 1.94 222.39
  Q 1.73 220.93 0.50 220.04"
/>
<path stroke="#b29689" vector-effect="non-scaling-stroke" d="
  M 0.50 220.04
  Q 0.29 219.90 0.24 219.71
  A 0.39 0.39 0.0 0 1 0.38 219.27
  L 25.96 199.51
  Q 27.42 198.37 25.67 197.77
  Q 16.39 194.57 8.47 188.71
  A 1.00 1.00 0.0 0 0 7.16 188.81
  Q 4.50 191.53 1.04 193.00"
/>
<path stroke="#4e4b4c" vector-effect="non-scaling-stroke" d="
  M 1.04 193.00
  Q 0.60 191.52 0.00 192.94"
/>
<path stroke="#4e4b4c" vector-effect="non-scaling-stroke" d="
  M 0.10 190.65
  L 4.24 187.69
  A 1.00 1.00 0.0 0 0 4.35 186.15
  Q 2.44 184.35 0.00 183.19"
/>
<path stroke="#c57479" vector-effect="non-scaling-stroke" d="
  M 255.12 117.62
  Q 227.01 96.13 198.92 74.65
  A 1.00 1.00 0.0 0 0 197.70 74.65
  L 139.02 119.51
  Q 136.65 121.33 136.84 122.99
  L 137.41 128.00
  Q 137.61 129.75 139.01 128.68
  L 183.61 94.66
  A 1.00 1.00 0.0 0 1 184.88 94.70
  Q 187.37 96.90 190.06 98.95
  Q 292.17 176.96 395.10 255.55
  A 1.02 1.01 27.6 0 1 395.45 256.64
  L 369.00 342.23
  A 1.01 1.00 -80.1 0 0 369.91 343.53
  L 377.77 343.86
  A 1.01 1.00 -80.2 0 0 378.77 343.15
  L 410.85 239.57
  Q 411.54 237.35 409.62 235.87
  Q 332.47 176.75 255.12 117.62"
/>
<path stroke="#77a6c3" vector-effect="non-scaling-stroke" d="
  M 328.21 262.50
  L 366.95 292.20
  A 1.00 0.99 -62.8 0 1 367.29 293.29
  L 350.94 346.32
  A 1.00 1.00 0.0 0 0 351.99 347.61
  Q 356.84 347.15 360.86 344.83
  A 0.99 0.99 0.0 0 0 361.31 344.25
  L 382.32 276.06
  Q 382.96 273.99 381.33 272.75
  L 353.25 251.21"
/>
<path stroke="#6ca7c5" vector-effect="non-scaling-stroke" d="
  M 353.25 251.21
  L 170.40 111.54
  A 1.00 1.00 0.0 0 0 169.18 111.54
  Q 154.51 122.87 139.58 134.06
  Q 133.72 138.45 134.29 145.11
  Q 134.44 146.93 135.89 145.81
  L 155.09 131.09
  A 0.99 0.98 44.7 0 1 156.30 131.09
  L 328.21 262.50"
/>
<path stroke="#4abaf3" vector-effect="non-scaling-stroke" d="
  M 353.25 251.21
  Q 352.36 251.17 352.92 252.03
  A 1.00 1.00 0.0 0 1 352.34 253.54
  Q 347.56 254.82 342.82 254.81
  Q 342.03 254.81 339.99 255.65
  A 0.66 0.64 -8.6 0 0 339.59 256.18
  Q 339.55 256.62 339.18 256.33
  A 0.83 0.80 59.7 0 0 338.58 256.16
  Q 333.29 256.83 329.04 260.03
  A 1.00 0.99 79.6 0 0 328.66 260.59
  L 328.21 262.50"
/>
<path stroke="#a2c7c7" vector-effect="non-scaling-stroke" d="
  M 127.79 167.98
  Q 131.31 170.42 134.73 173.03
  Q 236.11 250.51 338.59 328.73
  A 0.99 0.99 0.0 0 1 338.94 329.82
  L 330.36 357.42
  Q 329.70 359.55 331.73 358.63
  C 336.08 356.66 341.48 353.27 342.97 348.41
  Q 348.72 329.57 354.47 311.36
  A 0.99 0.99 0.0 0 0 354.12 310.27
  L 142.17 148.38
  A 1.02 1.02 0.0 0 0 141.00 148.34
  C 134.87 152.46 129.48 156.68 125.47 163.16
  Q 123.50 166.34 121.62 169.57
  Q 119.83 172.65 122.76 170.64
  L 126.65 167.97
  A 1.01 1.00 45.3 0 1 127.79 167.98"
/>
<path stroke="#b3978c" vector-effect="non-scaling-stroke" d="
  M 457.65 200.12
  C 453.17 197.45 448.56 193.29 444.33 190.09
  C 443.29 189.30 442.59 188.06 441.36 187.36
  C 437.51 185.18 433.23 181.62 429.98 179.08
  Q 423.72 174.19 417.34 169.40
  A 1.05 1.03 -28.5 0 0 416.64 169.20
  C 414.08 169.45 411.79 171.02 409.70 171.61
  C 405.39 172.84 402.13 174.59 397.56 174.30
  A 0.52 0.51 14.8 0 0 397.07 174.58
  L 396.93 174.87
  A 0.80 0.79 -73.5 0 1 396.13 175.31
  C 394.58 175.15 387.72 174.54 386.88 175.76
  A 0.99 0.98 15.2 0 1 386.13 176.18
  Q 379.29 176.65 377.70 176.03
  Q 373.89 174.53 369.86 175.36
  Q 367.62 175.82 369.48 177.15
  Q 376.34 182.07 383.12 187.34
  Q 394.87 196.48 397.21 198.26
  Q 410.58 208.38 423.85 218.63
  A 1.00 0.99 -61.5 0 1 424.18 219.76
  Q 421.84 226.28 419.93 232.94
  C 409.46 269.62 397.79 306.04 386.34 342.42
  A 1.00 1.00 0.0 0 0 387.31 343.72
  C 391.24 343.64 394.73 343.68 398.49 345.13
  Q 400.36 345.85 402.37 345.81
  A 0.79 0.78 -13.6 0 1 403.09 346.24
  L 403.24 346.52
  A 0.65 0.64 67.5 0 0 404.00 346.84
  Q 405.36 346.40 406.17 347.34
  A 1.01 0.97 69.1 0 0 406.92 347.69
  C 411.21 347.72 412.59 349.69 416.07 351.22
  Q 417.03 351.64 418.04 352.21
  A 1.00 1.00 0.0 0 0 419.46 351.72
  Q 421.51 346.69 423.04 341.52
  C 428.87 321.76 435.20 302.13 441.14 282.39
  C 441.91 279.83 443.12 276.81 443.94 273.97
  Q 445.62 268.12 445.64 268.05
  Q 455.33 237.16 464.75 206.11
  A 1.00 1.00 0.0 0 0 464.18 204.90
  C 461.46 203.75 460.06 201.56 457.65 200.12"
/>
<path stroke="#cbb4bb" vector-effect="non-scaling-stroke" d="
  M 31.22 75.48
  C 30.74 74.56 23.83 80.08 23.06 80.68
  Q 19.88 83.15 17.30 86.67
  C 7.84 99.53 4.09 112.32 6.00 128.77
  Q 8.05 146.52 21.53 157.76
  C 24.75 160.45 29.97 162.08 32.75 163.27
  Q 40.70 166.67 49.52 166.53
  Q 50.44 166.52 49.56 166.33
  L 48.79 166.16
  Q 48.55 166.11 48.79 166.08
  C 54.68 165.42 61.86 165.67 68.13 163.10
  Q 73.04 161.09 77.11 158.79
  C 90.79 151.06 99.38 132.03 99.10 116.98
  Q 99.09 116.25 99.32 116.54
  L 99.49 116.75
  Q 99.75 117.07 99.75 116.75
  L 99.75 112.39
  A 1.02 0.98 29.7 0 0 99.59 111.85
  Q 98.31 109.87 98.15 107.61
  C 97.94 104.59 97.27 102.82 96.75 100.17
  A 1.02 0.95 18.1 0 0 96.48 99.68
  Q 94.00 97.10 93.56 93.62
  A 1.07 1.03 22.9 0 0 93.35 93.13
  Q 91.44 90.67 89.51 88.22
  C 87.79 86.03 85.26 84.71 83.33 82.45
  C 81.93 80.82 78.24 77.79 76.57 76.82
  C 75.68 76.29 64.69 69.59 62.47 70.64
  A 0.96 0.92 -51.3 0 1 61.85 70.72
  Q 45.76 67.50 31.79 75.65
  A 0.42 0.41 61.3 0 1 31.22 75.48"
/>
<path stroke="#dcbec7" vector-effect="non-scaling-stroke" d="
  M 85.04 124.69
  L 85.60 115.43
  A 1.00 0.99 24.5 0 0 85.31 114.66
  Q 84.91 114.27 84.76 113.74
  C 83.49 109.22 81.02 102.63 77.57 99.34
  Q 76.88 98.69 76.42 97.86
  Q 76.02 97.15 76.71 97.58
  L 76.99 97.75
  Q 77.54 98.09 77.22 97.49
  C 75.07 93.44 72.00 92.73 68.44 90.82
  C 54.53 83.33 37.99 88.93 28.36 100.71
  Q 28.23 100.86 27.98 101.56
  Q 27.91 101.77 27.76 102.02
  C 20.20 114.47 19.05 131.56 30.21 142.42
  C 31.40 143.58 33.27 144.11 34.36 145.96
  A 0.97 0.97 0.0 0 0 34.78 146.35
  Q 35.95 146.93 39.27 149.26
  C 42.21 151.31 47.62 151.51 52.00 151.70
  C 58.31 151.96 64.52 151.29 69.77 147.52
  Q 81.28 139.25 85.20 125.38
  C 85.27 125.13 85.28 125.13 85.06 125.00
  A 0.35 0.04 -87.3 0 1 85.04 124.69"
/>
<path stroke="#ff9847" vector-effect="non-scaling-stroke" d="
  M 298.25 409.79
  L 297.50 409.21"
/>
<path stroke="#cc987a" vector-effect="non-scaling-stroke" d="
  M 297.50 409.21
  C 300.76 401.11 303.13 390.98 305.04 384.58
  Q 307.77 375.40 310.59 366.60
  A 1.00 0.99 27.7 0 0 310.24 365.50
  L 99.57 204.55
  A 1.00 1.00 0.0 0 0 98.35 204.55
  L 0.27 279.30"
/>
<path stroke="#dd7469" vector-effect="non-scaling-stroke" d="
  M 0.50 220.04
  L 0.00 220.69"
/>
<path stroke="#af9588" vector-effect="non-scaling-stroke" d="
  M 0.00 200.44
  L 0.46 194.50"
/>
<path stroke="#664d40" vector-effect="non-scaling-stroke" d="
  M 0.46 194.50
  L 1.04 193.00"
/>
<path stroke="#c9bc0a" vector-effect="non-scaling-stroke" d="
  M 499.99 284.29
  Q 495.38 284.27 492.27 287.65
  Q 490.91 289.13 489.49 290.04
  C 486.87 291.72 484.66 294.40 482.35 295.98
  C 478.48 298.62 475.32 301.97 470.23 302.80
  C 466.01 303.49 466.66 307.60 463.29 308.00"
/>
<path stroke="#4b4a4a" vector-effect="non-scaling-stroke" d="
  M 0.46 194.50
  L 0.00 193.69"
/>
<path stroke="#cc9363" vector-effect="non-scaling-stroke" d="
  M 297.50 409.21
  Q 295.52 412.16 294.00 417.25
  Q 285.82 444.61 268.19 500.00"
/>
<path stroke="#ccb474" vector-effect="non-scaling-stroke" d="
  M 261.94 500.00
  L 297.63 384.59
  A 1.01 1.00 -63.1 0 0 297.28 383.50
  L 85.39 221.58
  A 0.99 0.98 44.7 0 0 84.18 221.58
  L -0.23 286.14"
/>
<path stroke="#c9b372" vector-effect="non-scaling-stroke" d="
  M 252.19 500.00
  L 282.21 403.37
  A 0.99 0.99 0.0 0 0 281.86 402.28
  L 71.19 241.32
  A 1.00 0.98 44.9 0 0 69.98 241.31
  L 0.28 294.33"
/>
<path stroke="#6cb680" vector-effect="non-scaling-stroke" d="
  M 245.19 500.00
  L 269.40 421.80
  A 1.02 1.00 -58.3 0 0 269.18 420.82
  Q 266.99 418.46 263.19 415.56
  Q 160.26 336.92 57.29 258.31
  A 1.00 0.99 -40.0 0 0 56.23 258.22
  Q 53.56 259.58 51.18 261.41
  Q 25.51 281.08 -0.15 300.75"
/>
<path stroke="#4dde69" vector-effect="non-scaling-stroke" d="
  M 218.69 500.00
  Q 217.15 498.78 215.03 498.87
  Q 218.31 498.95 216.80 497.89
  A 1.01 1.00 26.2 0 1 216.42 496.78
  Q 218.16 491.13 214.17 486.66
  A 0.99 0.99 0.0 0 1 213.93 486.17
  Q 213.65 484.59 213.46 483.01
  C 213.11 480.15 211.62 478.12 212.21 474.82
  A 1.01 0.99 -63.4 0 0 211.92 473.91
  L 209.43 471.57
  A 1.04 1.02 -73.6 0 1 209.13 471.01
  Q 208.59 467.95 205.92 466.30
  A 1.00 0.98 12.4 0 1 205.45 465.58
  Q 205.15 463.36 203.18 462.29
  A 0.99 0.99 0.0 0 1 202.71 461.08
  Q 203.63 458.51 200.94 457.73
  A 1.03 0.98 -11.8 0 1 200.47 457.44
  Q 198.40 455.14 196.33 452.85
  C 194.83 451.19 192.63 450.07 191.11 448.06
  A 0.93 0.90 -8.9 0 0 190.63 447.72
  C 188.91 447.15 187.71 446.92 186.39 445.53
  C 181.71 440.55 175.60 438.15 170.49 433.72
  C 169.35 432.74 167.71 432.64 166.76 432.02
  Q 162.22 429.04 157.37 426.55
  C 155.56 425.62 153.87 424.01 151.83 423.18
  Q 147.82 421.55 147.73 421.51
  Q 132.34 413.75 115.85 408.63
  C 114.44 408.19 113.14 407.16 111.54 406.83
  Q 109.20 406.37 108.31 405.91
  C 100.94 402.16 93.55 398.82 87.01 393.65
  C 85.38 392.36 82.85 391.14 80.99 389.02
  Q 76.79 384.22 73.83 380.36
  C 71.26 377.01 67.76 373.29 65.46 368.54
  Q 64.83 367.23 63.25 366.63
  A 1.08 1.04 -5.5 0 1 62.77 366.25
  C 59.84 361.89 56.89 359.23 52.84 355.91
  C 51.21 354.58 49.51 352.08 46.80 350.96
  Q 45.50 350.42 43.69 347.13
  A 1.03 1.01 -5.8 0 0 43.09 346.65
  C 40.77 345.98 38.91 344.07 37.51 343.20
  C 29.23 338.11 9.80 328.00 1.08 333.52
  A 1.01 1.00 -21.8 0 0 0.63 334.56
  Q 0.89 335.90 0.00 336.69"
/>
<path stroke="#ada749" vector-effect="non-scaling-stroke" d="
  M 420.94 500.00
  Q 419.79 499.93 419.00 499.29"
/>
<path stroke="#c1aeb3" vector-effect="non-scaling-stroke" d="
  M 430.13 433.03
  Q 431.34 431.81 430.56 430.18
  A 1.03 1.00 -53.6 0 1 430.48 429.59
  Q 431.68 422.22 431.08 414.74
  A 1.02 1.01 21.9 0 0 430.83 414.16
  L 428.74 411.76
  A 1.00 0.99 28.8 0 1 428.51 410.98
  Q 428.99 407.16 426.24 404.43
  A 1.10 1.09 16.4 0 1 425.97 403.94
  C 425.32 401.04 423.40 399.27 422.53 396.66
  Q 421.92 394.83 421.12 393.07
  A 1.03 0.98 2.5 0 0 420.68 392.61
  C 417.02 390.64 415.29 387.35 412.45 385.13
  Q 410.63 383.71 408.79 382.32
  C 406.59 380.66 403.51 379.94 400.97 378.43
  C 399.37 377.48 398.45 375.64 395.83 375.53
  A 1.05 0.99 -21.3 0 1 395.21 375.28
  Q 394.27 374.44 393.55 374.20
  Q 386.67 371.90 379.45 372.43
  Q 377.15 372.60 375.20 373.82
  C 373.50 374.88 371.87 374.35 370.28 374.80
  Q 360.40 377.63 358.20 378.69
  Q 354.03 380.70 345.95 386.74
  C 342.46 389.35 339.85 393.19 336.60 396.36
  Q 335.19 397.73 331.16 405.60
  A 0.53 0.52 -54.2 0 0 331.25 406.19
  C 331.57 406.52 331.10 407.05 330.97 407.36
  C 324.39 423.37 325.99 436.23 330.96 453.05
  C 331.95 456.40 335.10 460.48 337.29 463.72
  C 338.21 465.09 340.70 466.70 341.19 468.04
  A 0.98 0.96 -89.5 0 0 341.75 468.62
  C 343.75 469.43 344.89 471.18 346.34 472.18
  Q 350.47 475.04 353.53 476.78
  Q 355.52 477.91 357.73 478.51
  Q 362.93 479.91 368.21 481.00
  C 370.28 481.43 372.09 481.01 374.21 480.97
  A 0.80 0.79 -0.4 0 0 375.00 480.18
  L 375.00 479.88
  A 0.64 0.63 -5.5 0 1 375.52 479.26
  C 380.67 478.28 385.77 478.66 390.87 477.82
  C 399.96 476.33 412.96 466.66 418.54 459.48
  Q 424.38 451.94 428.38 441.15
  Q 429.98 436.85 429.84 433.78
  A 1.00 0.99 66.3 0 1 430.13 433.03"
/>
<path stroke="#dcbec7" vector-effect="non-scaling-stroke" d="
  M 349.41 438.00
  C 353.70 446.47 356.50 453.34 366.19 456.66
  Q 368.55 457.46 370.99 457.04
  A 0.96 0.95 -38.3 0 1 371.53 457.10
  Q 376.07 458.90 380.57 457.64
  C 383.64 456.78 385.93 456.69 388.80 456.57
  Q 389.02 456.56 389.22 456.45
  L 394.27 453.80
  Q 394.43 453.72 394.54 453.60
  C 396.54 451.45 399.19 450.70 400.96 448.80
  Q 414.71 433.99 408.26 413.81
  Q 407.80 412.38 403.20 406.74
  A 1.03 1.02 -14.3 0 0 402.62 406.40
  Q 401.13 406.10 400.72 404.63
  Q 400.66 404.39 400.48 404.21
  C 392.52 395.85 379.19 395.13 368.95 397.46
  C 364.56 398.46 360.89 401.59 357.34 404.29
  Q 354.35 406.56 352.52 409.48
  C 347.16 418.01 344.63 426.59 348.47 436.43
  Q 348.51 436.53 348.56 437.06
  Q 348.58 437.27 348.73 437.39
  Q 349.38 437.95 349.41 438.00"
/>
</g>
<path fill="#c12b34" d="
  M 0.00 0.00
  L 249.81 0.00
  L 250.00 0.71
  Q 247.62 2.19 245.40 3.89
  Q 189.28 47.01 133.21 89.67
  A 1.01 1.00 60.2 0 1 131.68 89.25
  Q 119.12 59.01 89.50 45.04
  Q 63.48 33.34 36.51 39.50
  Q 16.94 43.97 0.17 57.45
  L 0.00 0.00
  Z"
/>
<path fill="#a74a9d" d="
  M 249.81 0.00
  L 393.31 0.00
  L 396.29 11.87
  L 388.50 11.04
  Q 355.16 8.71 329.75 29.71
  Q 320.18 37.28 313.37 47.56
  A 1.01 1.00 35.4 0 1 311.93 47.80
  L 250.00 0.71
  L 249.81 0.00
  Z"
/>
<path fill="#933493" d="
  M 393.31 0.00
  L 500.00 0.00
  L 500.00 189.81
  L 499.87 190.09
  A 0.80 0.80 0.0 0 1 498.66 190.39
  L 445.00 149.40
  A 1.01 1.00 -50.7 0 1 444.86 147.94
  Q 455.14 136.22 460.25 121.29
  C 463.98 111.32 464.82 102.69 464.80 92.13
  C 464.75 51.91 435.46 18.80 396.29 11.87
  L 393.31 0.00
  Z"
/>
<path fill="#a1989b" d="
  M 250.00 0.71
  L 311.93 47.80
  A 1.01 1.00 35.4 0 0 313.37 47.56
  Q 320.18 37.28 329.75 29.71
  Q 330.64 30.03 330.17 30.91
  A 0.24 0.16 -69.9 0 0 330.25 31.25
  L 330.58 31.24
  Q 331.14 31.23 330.79 31.67
  Q 326.99 36.38 326.56 37.57
  Q 326.04 39.03 326.56 38.57
  Q 327.19 38.00 327.10 38.85
  Q 327.06 39.26 327.02 39.67
  Q 326.93 40.42 326.56 41.10
  Q 323.99 45.77 322.07 50.75
  Q 321.86 51.29 321.85 50.72
  L 321.85 50.31
  Q 321.85 49.42 321.45 50.22
  L 320.87 51.40
  Q 318.53 56.15 319.37 50.92
  L 319.44 50.44
  Q 319.69 48.90 318.84 50.21
  Q 316.55 53.75 316.23 58.24
  C 316.08 60.31 314.78 62.08 314.38 63.95
  Q 312.75 71.55 311.08 79.14
  C 310.61 81.26 310.90 83.49 310.84 85.70
  Q 310.82 86.55 310.92 85.73
  Q 311.69 79.64 313.34 73.72
  Q 314.60 69.22 313.98 73.85
  Q 313.92 74.35 313.82 74.85
  C 310.63 92.35 312.33 113.44 320.51 129.42
  C 327.69 143.44 338.21 153.34 352.73 159.14
  C 367.66 165.10 382.45 166.28 398.26 163.58
  C 403.83 162.63 408.76 159.75 414.47 157.51
  C 421.50 154.75 427.32 149.60 432.70 144.51
  C 437.26 140.21 441.91 133.20 444.55 128.56
  Q 453.29 113.22 454.25 94.74
  Q 454.28 94.16 454.07 93.83
  A 1.24 0.28 53.5 0 1 453.71 93.02
  Q 453.89 82.42 452.24 77.76
  C 450.76 73.58 450.23 69.43 448.00 65.52
  Q 444.94 60.15 442.92 54.25
  Q 442.84 54.02 442.67 53.85
  L 437.92 49.25
  A 1.01 1.00 18.0 0 1 437.62 48.67
  C 437.31 46.37 434.61 45.11 432.79 44.09
  A 1.00 0.96 4.1 0 1 432.35 43.60
  Q 431.62 41.87 429.85 41.50
  A 0.99 0.97 81.4 0 1 429.17 40.99
  Q 427.60 38.03 425.02 35.93
  C 423.71 34.87 423.07 33.42 421.68 32.46
  C 416.80 29.13 412.98 25.79 407.34 23.56
  A 0.98 0.97 83.4 0 1 406.89 23.20
  C 405.10 20.63 402.39 20.37 400.15 19.01
  Q 396.73 16.93 392.69 16.37
  A 0.93 0.92 -22.1 0 1 392.21 16.17
  Q 390.21 14.60 388.35 12.89
  C 387.75 12.33 385.80 11.32 388.50 11.04
  L 396.29 11.87
  C 435.46 18.80 464.75 51.91 464.80 92.13
  C 464.82 102.69 463.98 111.32 460.25 121.29
  L 457.56 124.05
  A 1.00 0.94 73.5 0 0 457.29 124.59
  Q 456.84 127.35 454.89 129.23
  A 0.41 0.41 0.0 0 0 454.76 129.55
  L 454.82 130.30
  A 0.96 0.93 -33.3 0 1 454.70 130.83
  L 452.13 135.73
  A 1.04 1.01 2.4 0 1 451.63 136.18
  Q 450.92 136.48 450.94 137.15
  A 0.81 0.81 0.0 0 1 450.47 137.90
  Q 449.12 138.51 448.97 139.91
  A 1.12 1.05 -26.0 0 1 448.78 140.41
  C 443.46 147.45 433.99 156.07 427.71 160.96
  C 425.06 163.02 419.45 165.33 415.17 167.39
  Q 411.97 168.93 408.48 169.75
  Q 408.30 169.79 408.14 169.90
  L 407.06 170.64
  A 0.98 0.97 -56.2 0 1 406.32 170.79
  Q 404.38 170.44 402.81 171.48
  Q 402.62 171.60 402.40 171.63
  L 398.30 172.21
  A 1.05 0.97 -66.9 0 0 397.81 172.43
  C 394.91 174.79 389.11 173.82 384.89 174.74
  C 382.90 175.17 381.31 174.71 379.29 174.74
  Q 377.31 174.76 375.18 174.22
  Q 372.90 173.64 370.51 173.64
  A 1.01 0.99 72.8 0 1 369.68 173.19
  C 368.96 172.10 361.43 171.13 356.03 170.19
  A 1.06 1.02 -58.8 0 0 355.23 170.40
  Q 353.75 171.58 352.37 170.19
  A 1.00 0.97 65.7 0 0 351.63 169.90
  Q 347.86 170.01 345.43 167.33
  A 1.00 0.97 -20.0 0 0 344.69 167.00
  L 342.12 166.99
  A 1.01 0.99 76.3 0 1 341.23 166.44
  Q 339.87 163.75 336.73 161.28
  C 327.86 154.29 317.81 144.12 312.71 132.98
  Q 312.65 132.84 312.58 132.99
  L 312.52 133.15
  Q 312.37 133.50 312.12 133.15
  C 309.39 129.27 308.52 122.85 306.63 118.25
  C 305.14 114.59 305.72 110.65 304.11 106.69
  Q 304.01 106.44 304.05 106.18
  Q 304.38 103.74 303.77 100.24
  Q 302.47 92.89 303.55 84.10
  A 1.00 0.99 -60.1 0 0 303.36 83.38
  Q 302.12 81.72 303.30 80.38
  A 1.00 0.98 68.6 0 0 303.54 79.82
  Q 304.57 69.49 307.05 59.42
  C 307.70 56.78 309.31 47.44 302.97 50.08
  Q 299.87 51.37 296.66 52.26
  Q 296.42 52.32 296.24 52.49
  C 293.84 54.76 290.90 55.67 288.74 57.90
  Q 287.00 59.70 285.29 61.55
  Q 284.25 62.68 282.27 62.60
  A 0.99 0.98 -84.5 0 0 281.25 63.45
  L 281.00 65.04
  L 225.90 23.08
  A 1.00 1.00 0.0 0 0 224.75 23.03
  L 218.52 27.04
  Q 218.33 27.17 218.21 27.37
  Q 217.23 29.02 215.37 29.35
  A 1.04 1.01 -75.4 0 0 214.76 29.72
  Q 213.39 31.45 211.43 32.23
  A 0.95 0.93 -82.4 0 0 211.02 32.55
  C 209.14 34.97 206.48 36.29 204.46 38.15
  C 201.55 40.83 198.10 42.52 195.25 45.11
  Q 193.24 46.94 191.08 48.60
  Q 162.53 70.53 133.79 92.30
  A 1.00 0.99 -27.7 0 0 133.44 93.40
  Q 135.53 99.76 135.73 106.18
  Q 133.65 112.21 133.97 118.50
  C 134.19 122.93 133.51 126.32 133.15 130.46
  C 132.97 132.54 131.82 134.26 131.11 136.23
  Q 130.93 136.72 130.97 136.20
  L 130.99 135.93
  Q 131.13 134.34 130.59 135.84
  Q 127.66 143.88 124.20 151.73
  Q 121.33 158.23 117.28 163.99
  C 114.48 167.99 110.48 171.31 106.78 174.76
  C 99.20 181.80 91.71 185.55 83.06 190.12
  C 78.86 192.34 73.68 192.67 69.12 194.31
  C 67.35 194.94 65.33 194.97 63.49 195.55
  Q 60.66 196.43 59.36 196.58
  C 48.11 197.80 36.39 197.03 25.91 192.52
  Q 21.96 190.82 17.69 190.02
  Q 17.47 189.98 17.29 189.85
  L 14.29 187.68
  Q 14.09 187.54 14.21 187.52
  L 14.36 187.49
  Q 14.53 187.46 14.42 187.37
  C 12.49 185.84 6.26 184.17 5.87 182.30
  A 1.03 1.02 -77.9 0 0 5.48 181.69
  Q 3.01 179.88 0.00 179.19
  L -0.08 169.79
  Q 2.97 171.98 5.40 174.79
  C 7.18 176.84 9.58 178.42 11.81 180.68
  C 14.03 182.93 18.96 184.13 21.51 185.29
  Q 28.82 188.59 38.28 190.90
  C 42.87 192.01 46.93 191.24 50.54 191.37
  Q 60.26 191.73 67.50 189.21
  C 71.71 187.75 75.54 186.82 79.17 184.93
  Q 84.42 182.20 90.11 180.40
  Q 90.32 180.33 90.49 180.19
  C 94.54 176.47 99.46 173.13 103.06 169.76
  Q 114.09 159.44 120.13 145.66
  C 123.66 137.61 126.17 132.40 126.98 125.06
  A 1.03 1.01 34.5 0 0 126.87 124.49
  C 125.83 122.46 127.19 121.41 127.51 119.94
  C 128.62 114.82 127.43 110.30 128.07 105.09
  A 0.28 0.28 0.0 0 0 128.00 104.88
  L 127.83 104.69
  A 0.98 0.94 22.4 0 1 127.56 104.08
  Q 127.23 98.74 125.01 93.90
  A 0.26 0.25 -13.1 0 0 124.76 93.75
  L 124.46 93.76
  A 0.51 0.50 78.2 0 1 123.96 93.43
  Q 120.45 83.69 118.18 80.33
  Q 115.41 76.23 114.77 73.76
  C 114.62 73.17 113.02 72.08 112.53 71.32
  C 108.87 65.66 104.22 61.36 101.00 55.42
  A 1.00 0.99 77.7 0 0 100.20 54.90
  Q 97.64 54.69 97.57 52.15
  A 1.01 1.01 0.0 0 0 97.30 51.49
  L 94.89 48.95
  A 1.03 1.02 -22.4 0 0 94.13 48.64
  Q 90.25 48.78 89.50 45.04
  Q 119.12 59.01 131.68 89.25
  A 1.01 1.00 60.2 0 0 133.21 89.67
  Q 189.28 47.01 245.40 3.89
  Q 247.62 2.19 250.00 0.71
  Z"
/>
<path fill="#b1a3a7" d="
  M 388.50 11.04
  C 385.80 11.32 387.75 12.33 388.35 12.89
  Q 390.21 14.60 392.21 16.17
  A 0.93 0.92 -22.1 0 0 392.69 16.37
  Q 396.73 16.93 400.15 19.01
  C 402.39 20.37 405.10 20.63 406.89 23.20
  A 0.98 0.97 83.4 0 0 407.34 23.56
  C 412.98 25.79 416.80 29.13 421.68 32.46
  C 423.07 33.42 423.71 34.87 425.02 35.93
  Q 427.60 38.03 429.17 40.99
  A 0.99 0.97 81.4 0 0 429.85 41.50
  Q 431.62 41.87 432.35 43.60
  A 1.00 0.96 4.1 0 0 432.79 44.09
  C 434.61 45.11 437.31 46.37 437.62 48.67
  A 1.01 1.00 18.0 0 0 437.92 49.25
  L 442.67 53.85
  Q 442.84 54.02 442.92 54.25
  Q 444.94 60.15 448.00 65.52
  C 450.23 69.43 450.76 73.58 452.24 77.76
  Q 453.89 82.42 453.71 93.02
  A 1.24 0.28 53.5 0 0 454.07 93.83
  Q 454.28 94.16 454.25 94.74
  Q 453.29 113.22 444.55 128.56
  C 441.91 133.20 437.26 140.21 432.70 144.51
  C 427.32 149.60 421.50 154.75 414.47 157.51
  C 408.76 159.75 403.83 162.63 398.26 163.58
  C 382.45 166.28 367.66 165.10 352.73 159.14
  C 338.21 153.34 327.69 143.44 320.51 129.42
  C 312.33 113.44 310.63 92.35 313.82 74.85
  Q 313.92 74.35 313.98 73.85
  Q 314.60 69.22 313.34 73.72
  Q 311.69 79.64 310.92 85.73
  Q 310.82 86.55 310.84 85.70
  C 310.90 83.49 310.61 81.26 311.08 79.14
  Q 312.75 71.55 314.38 63.95
  C 314.78 62.08 316.08 60.31 316.23 58.24
  Q 316.55 53.75 318.84 50.21
  Q 319.69 48.90 319.44 50.44
  L 319.37 50.92
  Q 318.53 56.15 320.87 51.40
  L 321.45 50.22
  Q 321.85 49.42 321.85 50.31
  L 321.85 50.72
  Q 321.86 51.29 322.07 50.75
  Q 323.99 45.77 326.56 41.10
  Q 326.93 40.42 327.02 39.67
  Q 327.06 39.26 327.10 38.85
  Q 327.19 38.00 326.56 38.57
  Q 326.04 39.03 326.56 37.57
  Q 326.99 36.38 330.79 31.67
  Q 331.14 31.23 330.58 31.24
  L 330.25 31.25
  A 0.24 0.16 -69.9 0 1 330.17 30.91
  Q 330.64 30.03 329.75 29.71
  Q 355.16 8.71 388.50 11.04
  Z
  M 332.26 58.30
  Q 332.42 57.61 332.00 57.94
  Q 331.33 58.47 331.68 57.69
  L 333.48 53.72
  Q 335.09 50.18 332.62 53.18
  Q 332.51 53.31 332.41 53.45
  C 330.84 55.39 330.47 58.33 329.21 60.68
  Q 327.80 63.31 327.27 65.02
  C 325.66 70.23 323.69 75.25 323.11 80.58
  C 321.43 95.96 322.39 110.04 329.88 123.85
  C 330.56 125.10 331.04 126.88 332.00 128.26
  C 349.52 153.50 382.34 161.98 409.75 147.76
  C 440.47 131.81 454.27 93.80 435.78 63.52
  C 434.80 61.92 434.70 59.36 433.52 58.23
  Q 427.49 52.41 422.57 45.61
  A 0.98 0.97 -5.6 0 0 422.15 45.27
  Q 415.17 42.33 409.47 37.54
  Q 407.47 35.87 405.28 35.04
  Q 404.00 34.55 402.72 34.04
  Q 399.72 32.86 402.49 34.51
  L 402.99 34.81
  Q 404.82 35.90 403.02 35.19
  Q 396.34 32.55 389.14 31.88
  Q 388.97 31.86 388.81 31.79
  C 387.18 31.04 375.87 26.71 375.02 28.76
  A 0.63 0.62 13.0 0 1 374.38 29.15
  Q 367.72 28.67 361.51 31.04
  Q 360.73 31.33 361.75 31.25
  L 362.01 31.23
  Q 363.24 31.14 361.94 31.52
  Q 357.87 32.72 353.26 36.26
  C 351.45 37.65 343.79 42.36 343.66 44.29
  A 1.05 1.04 -21.1 0 1 343.37 44.93
  L 334.19 54.10
  A 1.04 1.04 0.0 0 0 333.90 54.77
  Q 333.82 56.84 332.86 58.54
  Q 331.72 60.57 332.26 58.30
  Z"
/>
<path fill="#cd9a82" d="
  M 281.00 65.04
  L 300.77 80.30
  A 1.00 0.99 -58.5 0 1 301.06 81.52
  C 299.29 85.24 298.89 99.43 300.31 103.20
  C 301.06 105.19 300.79 108.14 301.08 109.64
  Q 302.95 119.08 306.68 127.97
  A 0.27 0.26 -34.9 0 1 306.62 128.26
  L 306.42 128.45
  A 0.33 0.33 0.0 0 1 305.99 128.48
  L 213.03 57.58
  A 1.00 0.99 44.7 0 0 211.82 57.58
  L 138.97 113.31
  Q 137.47 114.46 137.37 112.56
  L 137.21 109.51
  A 1.02 1.01 -74.4 0 0 136.78 108.74
  Q 135.71 108.00 135.73 106.18
  Q 135.53 99.76 133.44 93.40
  A 1.00 0.99 -27.7 0 1 133.79 92.30
  Q 162.53 70.53 191.08 48.60
  Q 193.24 46.94 195.25 45.11
  C 198.10 42.52 201.55 40.83 204.46 38.15
  C 206.48 36.29 209.14 34.97 211.02 32.55
  A 0.95 0.93 -82.4 0 1 211.43 32.23
  Q 213.39 31.45 214.76 29.72
  A 1.04 1.01 -75.4 0 1 215.37 29.35
  Q 217.23 29.02 218.21 27.37
  Q 218.33 27.17 218.52 27.04
  L 224.75 23.03
  A 1.00 1.00 0.0 0 1 225.90 23.08
  L 281.00 65.04
  Z"
/>
<path fill="#baacb0" d="
  M 332.86 58.54
  Q 333.82 56.84 333.90 54.77
  A 1.04 1.04 0.0 0 1 334.19 54.10
  L 343.37 44.93
  A 1.05 1.04 -21.1 0 0 343.66 44.29
  C 343.79 42.36 351.45 37.65 353.26 36.26
  Q 357.87 32.72 361.94 31.52
  Q 363.24 31.14 362.01 31.23
  L 361.75 31.25
  Q 360.73 31.33 361.51 31.04
  Q 367.72 28.67 374.38 29.15
  A 0.63 0.62 13.0 0 0 375.02 28.76
  C 375.87 26.71 387.18 31.04 388.81 31.79
  Q 388.97 31.86 389.14 31.88
  Q 396.34 32.55 403.02 35.19
  Q 404.82 35.90 402.99 34.81
  L 402.49 34.51
  Q 399.72 32.86 402.72 34.04
  Q 404.00 34.55 405.28 35.04
  Q 407.47 35.87 409.47 37.54
  Q 415.17 42.33 422.15 45.27
  A 0.98 0.97 -5.6 0 1 422.57 45.61
  Q 427.49 52.41 433.52 58.23
  C 434.70 59.36 434.80 61.92 435.78 63.52
  C 454.27 93.80 440.47 131.81 409.75 147.76
  C 382.34 161.98 349.52 153.50 332.00 128.26
  C 331.04 126.88 330.56 125.10 329.88 123.85
  C 322.39 110.04 321.43 95.96 323.11 80.58
  C 323.69 75.25 325.66 70.23 327.27 65.02
  Q 327.80 63.31 329.21 60.68
  C 330.47 58.33 330.84 55.39 332.41 53.45
  Q 332.51 53.31 332.62 53.18
  Q 335.09 50.18 333.48 53.72
  L 331.68 57.69
  Q 331.33 58.47 332.00 57.94
  Q 332.42 57.61 332.26 58.30
  Q 331.72 60.57 332.86 58.54
  Z
  M 416.34 50.79
  Q 416.28 50.73 416.21 50.69
  Q 407.82 45.39 400.56 41.69
  C 393.54 38.11 384.98 37.91 376.80 37.58
  C 368.53 37.24 358.45 40.46 352.39 46.57
  C 351.53 47.44 350.28 47.94 349.49 48.75
  Q 348.19 50.08 343.32 55.39
  C 341.31 57.58 340.34 60.49 338.52 62.98
  Q 333.77 69.46 332.17 77.10
  C 330.82 83.57 329.88 89.13 330.30 95.74
  C 331.91 121.57 348.42 141.21 374.00 145.91
  Q 374.46 146.00 374.74 145.90
  Q 375.56 145.60 375.58 145.60
  C 384.49 146.49 393.76 146.24 402.03 142.86
  C 424.62 133.62 437.91 114.95 436.28 90.45
  Q 434.72 67.21 416.34 50.79
  Z"
/>
<path fill="#cab7bc" d="
  M 416.34 50.79
  Q 434.72 67.21 436.28 90.45
  C 437.91 114.95 424.62 133.62 402.03 142.86
  C 393.76 146.24 384.49 146.49 375.58 145.60
  Q 375.56 145.60 374.74 145.90
  Q 374.46 146.00 374.00 145.91
  C 348.42 141.21 331.91 121.57 330.30 95.74
  C 329.88 89.13 330.82 83.57 332.17 77.10
  Q 333.77 69.46 338.52 62.98
  C 340.34 60.49 341.31 57.58 343.32 55.39
  Q 348.19 50.08 349.49 48.75
  C 350.28 47.94 351.53 47.44 352.39 46.57
  C 358.45 40.46 368.53 37.24 376.80 37.58
  C 384.98 37.91 393.54 38.11 400.56 41.69
  Q 407.82 45.39 416.21 50.69
  Q 416.28 50.73 416.34 50.79
  Z
  M 406.25 118.50
  L 406.23 118.75
  Q 406.18 119.16 406.54 118.83
  Q 414.81 111.29 417.70 98.52
  C 419.39 91.06 417.93 88.12 414.92 80.48
  Q 413.52 76.94 411.66 73.61
  C 410.19 70.98 407.69 69.58 405.51 67.44
  C 394.51 56.69 379.02 55.63 365.62 62.38
  Q 365.42 62.49 365.20 62.49
  L 364.32 62.51
  A 0.98 0.98 0.0 0 0 363.68 62.77
  Q 360.36 65.74 357.85 69.35
  C 355.66 72.49 352.65 75.70 350.82 79.38
  Q 350.76 79.49 350.67 79.52
  A 0.41 0.17 -10.0 0 0 350.43 79.67
  C 344.01 93.02 346.31 105.87 356.39 116.20
  C 359.83 119.72 362.36 122.25 366.50 125.02
  Q 373.60 129.75 381.70 129.43
  Q 391.02 129.07 381.70 128.62
  L 376.26 128.35
  A 0.50 0.48 74.8 0 1 375.86 128.11
  Q 375.53 127.61 376.50 127.73
  C 388.13 129.17 396.30 125.22 406.03 118.42
  Q 406.28 118.25 406.25 118.50
  Z"
/>
<path fill="#b1a3a7" d="
  M 89.50 45.04
  Q 90.25 48.78 94.13 48.64
  A 1.03 1.02 -22.4 0 1 94.89 48.95
  L 97.30 51.49
  A 1.01 1.01 0.0 0 1 97.57 52.15
  Q 97.64 54.69 100.20 54.90
  A 1.00 0.99 77.7 0 1 101.00 55.42
  C 104.22 61.36 108.87 65.66 112.53 71.32
  C 113.02 72.08 114.62 73.17 114.77 73.76
  Q 115.41 76.23 118.18 80.33
  Q 120.45 83.69 123.96 93.43
  A 0.51 0.50 78.2 0 0 124.46 93.76
  L 124.76 93.75
  A 0.26 0.25 -13.1 0 1 125.01 93.90
  Q 127.23 98.74 127.56 104.08
  A 0.98 0.94 22.4 0 0 127.83 104.69
  L 128.00 104.88
  A 0.28 0.28 0.0 0 1 128.07 105.09
  C 127.43 110.30 128.62 114.82 127.51 119.94
  C 127.19 121.41 125.83 122.46 126.87 124.49
  A 1.03 1.01 34.5 0 1 126.98 125.06
  C 126.17 132.40 123.66 137.61 120.13 145.66
  Q 114.09 159.44 103.06 169.76
  C 99.46 173.13 94.54 176.47 90.49 180.19
  Q 90.32 180.33 90.11 180.40
  Q 84.42 182.20 79.17 184.93
  C 75.54 186.82 71.71 187.75 67.50 189.21
  Q 60.26 191.73 50.54 191.37
  C 46.93 191.24 42.87 192.01 38.28 190.90
  Q 28.82 188.59 21.51 185.29
  C 18.96 184.13 14.03 182.93 11.81 180.68
  C 9.58 178.42 7.18 176.84 5.40 174.79
  Q 2.97 171.98 -0.08 169.79
  L -0.02 145.69
  Q 0.76 148.03 2.85 149.33
  Q 3.07 149.47 3.20 149.71
  C 5.87 154.68 9.23 158.92 13.67 162.40
  C 16.16 164.36 17.51 168.06 21.33 168.05
  A 1.00 0.97 -22.9 0 1 22.00 168.31
  Q 25.24 171.25 29.15 173.13
  C 30.89 173.97 32.91 173.95 34.81 174.75
  C 41.25 177.46 50.92 177.76 57.67 176.17
  C 58.28 176.03 62.31 175.17 62.54 175.76
  A 0.20 0.19 -16.8 0 0 62.77 175.88
  C 89.53 170.51 108.14 147.19 110.97 120.65
  C 111.24 118.10 111.05 114.78 111.42 111.80
  A 0.98 0.98 0.0 0 0 111.28 111.17
  C 109.13 107.58 110.16 104.56 109.00 101.13
  C 108.86 100.71 106.25 94.10 106.63 93.77
  A 0.52 0.51 -34.8 0 0 106.75 93.15
  C 103.98 87.71 101.63 85.03 99.65 80.91
  C 97.84 77.15 94.41 76.09 92.08 72.74
  C 89.57 69.15 86.66 69.07 83.35 67.00
  C 79.02 64.28 74.66 61.15 69.89 59.72
  C 60.87 57.00 51.88 56.30 42.59 58.88
  C 25.65 63.57 11.54 73.31 3.21 89.43
  Q 2.32 91.13 0.00 91.44
  L 0.17 57.45
  Q 16.94 43.97 36.51 39.50
  Q 63.48 33.34 89.50 45.04
  Z"
/>
<path fill="#999395" d="
  M 460.25 121.29
  Q 455.14 136.22 444.86 147.94
  A 1.01 1.00 -50.7 0 0 445.00 149.40
  L 498.66 190.39
  A 0.80 0.80 0.0 0 0 499.87 190.09
  L 500.00 189.81
  L 500.00 192.31
  Q 499.00 191.69 498.62 192.92
  Q 481.01 250.47 463.29 308.00
  L 443.64 371.51
  A 1.01 1.00 34.4 0 0 443.82 372.44
  C 473.54 408.21 468.09 460.90 432.39 490.22
  C 428.47 493.44 423.53 496.39 419.00 499.29
  L 414.94 500.00
  L 396.87 499.88
  Q 403.16 496.45 409.52 493.17
  Q 411.94 491.92 414.96 489.61
  C 422.77 483.64 429.67 477.95 437.27 468.42
  A 1.14 1.06 -24.5 0 0 437.47 467.94
  C 437.76 466.00 439.39 464.74 440.05 463.49
  C 442.97 458.03 446.52 452.56 448.33 446.72
  Q 449.59 442.68 450.68 438.58
  C 451.26 436.40 450.55 434.24 451.85 431.93
  A 0.90 0.89 59.8 0 0 451.98 431.43
  C 451.92 427.21 452.41 423.06 451.78 418.98
  C 450.54 410.95 449.64 404.10 446.19 397.55
  C 445.21 395.70 445.47 393.80 444.09 392.01
  Q 442.39 389.82 442.01 389.03
  Q 438.82 382.50 433.47 377.51
  C 432.91 376.99 432.85 376.09 432.22 375.55
  C 427.92 371.80 423.70 367.55 418.78 364.72
  Q 415.63 362.91 412.41 361.21
  C 410.44 360.18 407.75 358.03 404.84 357.52
  Q 400.76 356.82 400.62 356.78
  C 395.87 355.68 390.63 355.26 384.82 353.85
  C 380.76 352.86 376.59 353.92 372.40 353.94
  A 0.38 0.28 15.2 0 0 372.14 354.04
  L 371.97 354.22
  A 0.65 0.65 0.0 0 1 371.58 354.42
  C 341.22 358.27 316.89 379.72 308.95 409.23
  C 304.09 427.27 307.08 446.56 312.18 463.23
  Q 312.21 463.33 312.26 463.42
  C 317.60 473.20 325.68 484.19 335.81 490.66
  C 337.98 492.04 340.73 492.33 342.96 494.42
  A 1.00 0.92 -16.5 0 0 343.47 494.67
  Q 345.38 495.01 347.19 494.54
  A 1.02 1.01 55.3 0 1 348.04 494.70
  Q 352.45 497.95 357.44 500.00
  L 345.69 500.00
  Q 342.81 499.37 339.94 500.00
  L 329.44 500.00
  L 331.65 493.13
  A 1.00 1.00 0.0 0 0 331.33 492.05
  L 326.69 488.26
  Q 324.22 486.25 323.29 489.43
  L 320.19 500.00
  L 313.20 500.09
  L 318.76 481.82
  A 1.01 1.01 0.0 0 0 318.59 480.91
  L 313.18 473.96
  Q 312.02 472.47 311.44 474.27
  L 303.13 500.07
  L 295.94 500.00
  L 307.00 464.46
  A 0.95 0.94 -48.7 0 0 306.96 463.76
  L 302.52 453.81
  Q 301.44 451.38 300.65 453.92
  L 286.44 500.00
  L 279.69 500.00
  L 299.53 436.40
  Q 299.60 436.18 299.57 435.95
  Q 298.09 426.28 299.49 415.26
  Q 299.95 411.64 298.25 409.79
  Q 298.93 409.74 299.01 409.31
  C 301.68 395.59 307.50 384.99 315.90 373.90
  C 321.41 366.63 323.31 356.90 325.98 348.06
  A 1.00 0.99 27.1 0 0 325.63 346.98
  L 113.74 185.12
  A 1.00 0.99 44.7 0 0 112.53 185.12
  L -0.23 271.14
  L 0.37 264.19
  L 84.70 199.80
  Q 88.45 196.94 83.86 198.03
  C 79.42 199.09 72.69 200.48 68.60 203.59
  Q 34.21 229.78 -0.14 256.00
  L 0.00 248.44
  Q 0.05 248.64 0.13 248.79
  A 0.52 0.51 -32.3 0 0 0.90 248.96
  L 59.09 204.35
  Q 60.77 203.06 58.71 202.58
  C 51.45 200.90 48.78 203.56 42.57 208.33
  Q 21.18 224.75 -0.28 241.08
  L 0.28 234.34
  L 41.40 203.21
  Q 43.11 201.92 41.02 201.43
  L 34.38 199.89
  A 1.00 1.00 0.0 0 0 33.55 200.08
  L 3.54 223.04
  A 1.01 1.00 -22.7 0 1 1.94 222.39
  Q 1.73 220.93 0.50 220.04
  Q 0.29 219.90 0.24 219.71
  A 0.39 0.39 0.0 0 1 0.38 219.27
  L 25.96 199.51
  Q 27.42 198.37 25.67 197.77
  Q 16.39 194.57 8.47 188.71
  A 1.00 1.00 0.0 0 0 7.16 188.81
  Q 4.50 191.53 1.04 193.00
  Q 0.60 191.52 0.00 192.94
  L 0.10 190.65
  L 4.24 187.69
  A 1.00 1.00 0.0 0 0 4.35 186.15
  Q 2.44 184.35 0.00 183.19
  L 0.00 179.19
  Q 3.01 179.88 5.48 181.69
  A 1.03 1.02 -77.9 0 1 5.87 182.30
  C 6.26 184.17 12.49 185.84 14.42 187.37
  Q 14.53 187.46 14.36 187.49
  L 14.21 187.52
  Q 14.09 187.54 14.29 187.68
  L 17.29 189.85
  Q 17.47 189.98 17.69 190.02
  Q 21.96 190.82 25.91 192.52
  C 36.39 197.03 48.11 197.80 59.36 196.58
  Q 60.66 196.43 63.49 195.55
  C 65.33 194.97 67.35 194.94 69.12 194.31
  C 73.68 192.67 78.86 192.34 83.06 190.12
  C 91.71 185.55 99.20 181.80 106.78 174.76
  C 110.48 171.31 114.48 167.99 117.28 163.99
  Q 121.33 158.23 124.20 151.73
  Q 127.66 143.88 130.59 135.84
  Q 131.13 134.34 130.99 135.93
  L 130.97 136.20
  Q 130.93 136.72 131.11 136.23
  C 131.82 134.26 132.97 132.54 133.15 130.46
  C 133.51 126.32 134.19 122.93 133.97 118.50
  Q 133.65 112.21 135.73 106.18
  Q 135.71 108.00 136.78 108.74
  A 1.02 1.01 -74.4 0 1 137.21 109.51
  L 137.37 112.56
  Q 137.47 114.46 138.97 113.31
  L 211.82 57.58
  A 1.00 0.99 44.7 0 1 213.03 57.58
  L 305.99 128.48
  A 0.33 0.33 0.0 0 0 306.42 128.45
  L 306.62 128.26
  A 0.27 0.26 -34.9 0 0 306.68 127.97
  Q 302.95 119.08 301.08 109.64
  C 300.79 108.14 301.06 105.19 300.31 103.20
  C 298.89 99.43 299.29 85.24 301.06 81.52
  A 1.00 0.99 -58.5 0 0 300.77 80.30
  L 281.00 65.04
  L 281.25 63.45
  A 0.99 0.98 -84.5 0 1 282.27 62.60
  Q 284.25 62.68 285.29 61.55
  Q 287.00 59.70 288.74 57.90
  C 290.90 55.67 293.84 54.76 296.24 52.49
  Q 296.42 52.32 296.66 52.26
  Q 299.87 51.37 302.97 50.08
  C 309.31 47.44 307.70 56.78 307.05 59.42
  Q 304.57 69.49 303.54 79.82
  A 1.00 0.98 68.6 0 1 303.30 80.38
  Q 302.12 81.72 303.36 83.38
  A 1.00 0.99 -60.1 0 1 303.55 84.10
  Q 302.47 92.89 303.77 100.24
  Q 304.38 103.74 304.05 106.18
  Q 304.01 106.44 304.11 106.69
  C 305.72 110.65 305.14 114.59 306.63 118.25
  C 308.52 122.85 309.39 129.27 312.12 133.15
  Q 312.37 133.50 312.52 133.15
  L 312.58 132.99
  Q 312.65 132.84 312.71 132.98
  C 317.81 144.12 327.86 154.29 336.73 161.28
  Q 339.87 163.75 341.23 166.44
  A 1.01 0.99 76.3 0 0 342.12 166.99
  L 344.69 167.00
  A 1.00 0.97 -20.0 0 1 345.43 167.33
  Q 347.86 170.01 351.63 169.90
  A 1.00 0.97 65.7 0 1 352.37 170.19
  Q 353.75 171.58 355.23 170.40
  A 1.06 1.02 -58.8 0 1 356.03 170.19
  C 361.43 171.13 368.96 172.10 369.68 173.19
  A 1.01 0.99 72.8 0 0 370.51 173.64
  Q 372.90 173.64 375.18 174.22
  Q 377.31 174.76 379.29 174.74
  C 381.31 174.71 382.90 175.17 384.89 174.74
  C 389.11 173.82 394.91 174.79 397.81 172.43
  A 1.05 0.97 -66.9 0 1 398.30 172.21
  L 402.40 171.63
  Q 402.62 171.60 402.81 171.48
  Q 404.38 170.44 406.32 170.79
  A 0.98 0.97 -56.2 0 0 407.06 170.64
  L 408.14 169.90
  Q 408.30 169.79 408.48 169.75
  Q 411.97 168.93 415.17 167.39
  C 419.45 165.33 425.06 163.02 427.71 160.96
  C 433.99 156.07 443.46 147.45 448.78 140.41
  A 1.12 1.05 -26.0 0 0 448.97 139.91
  Q 449.12 138.51 450.47 137.90
  A 0.81 0.81 0.0 0 0 450.94 137.15
  Q 450.92 136.48 451.63 136.18
  A 1.04 1.01 2.4 0 0 452.13 135.73
  L 454.70 130.83
  A 0.96 0.93 -33.3 0 0 454.82 130.30
  L 454.76 129.55
  A 0.41 0.41 0.0 0 1 454.89 129.23
  Q 456.84 127.35 457.29 124.59
  A 1.00 0.94 73.5 0 1 457.56 124.05
  L 460.25 121.29
  Z
  M 255.12 117.62
  Q 227.01 96.13 198.92 74.65
  A 1.00 1.00 0.0 0 0 197.70 74.65
  L 139.02 119.51
  Q 136.65 121.33 136.84 122.99
  L 137.41 128.00
  Q 137.61 129.75 139.01 128.68
  L 183.61 94.66
  A 1.00 1.00 0.0 0 1 184.88 94.70
  Q 187.37 96.90 190.06 98.95
  Q 292.17 176.96 395.10 255.55
  A 1.02 1.01 27.6 0 1 395.45 256.64
  L 369.00 342.23
  A 1.01 1.00 -80.1 0 0 369.91 343.53
  L 377.77 343.86
  A 1.01 1.00 -80.2 0 0 378.77 343.15
  L 410.85 239.57
  Q 411.54 237.35 409.62 235.87
  Q 332.47 176.75 255.12 117.62
  Z
  M 328.21 262.50
  L 366.95 292.20
  A 1.00 0.99 -62.8 0 1 367.29 293.29
  L 350.94 346.32
  A 1.00 1.00 0.0 0 0 351.99 347.61
  Q 356.84 347.15 360.86 344.83
  A 0.99 0.99 0.0 0 0 361.31 344.25
  L 382.32 276.06
  Q 382.96 273.99 381.33 272.75
  L 353.25 251.21
  L 170.40 111.54
  A 1.00 1.00 0.0 0 0 169.18 111.54
  Q 154.51 122.87 139.58 134.06
  Q 133.72 138.45 134.29 145.11
  Q 134.44 146.93 135.89 145.81
  L 155.09 131.09
  A 0.99 0.98 44.7 0 1 156.30 131.09
  L 328.21 262.50
  Z
  M 127.79 167.98
  Q 131.31 170.42 134.73 173.03
  Q 236.11 250.51 338.59 328.73
  A 0.99 0.99 0.0 0 1 338.94 329.82
  L 330.36 357.42
  Q 329.70 359.55 331.73 358.63
  C 336.08 356.66 341.48 353.27 342.97 348.41
  Q 348.72 329.57 354.47 311.36
  A 0.99 0.99 0.0 0 0 354.12 310.27
  L 142.17 148.38
  A 1.02 1.02 0.0 0 0 141.00 148.34
  C 134.87 152.46 129.48 156.68 125.47 163.16
  Q 123.50 166.34 121.62 169.57
  Q 119.83 172.65 122.76 170.64
  L 126.65 167.97
  A 1.01 1.00 45.3 0 1 127.79 167.98
  Z
  M 457.65 200.12
  C 453.17 197.45 448.56 193.29 444.33 190.09
  C 443.29 189.30 442.59 188.06 441.36 187.36
  C 437.51 185.18 433.23 181.62 429.98 179.08
  Q 423.72 174.19 417.34 169.40
  A 1.05 1.03 -28.5 0 0 416.64 169.20
  C 414.08 169.45 411.79 171.02 409.70 171.61
  C 405.39 172.84 402.13 174.59 397.56 174.30
  A 0.52 0.51 14.8 0 0 397.07 174.58
  L 396.93 174.87
  A 0.80 0.79 -73.5 0 1 396.13 175.31
  C 394.58 175.15 387.72 174.54 386.88 175.76
  A 0.99 0.98 15.2 0 1 386.13 176.18
  Q 379.29 176.65 377.70 176.03
  Q 373.89 174.53 369.86 175.36
  Q 367.62 175.82 369.48 177.15
  Q 376.34 182.07 383.12 187.34
  Q 394.87 196.48 397.21 198.26
  Q 410.58 208.38 423.85 218.63
  A 1.00 0.99 -61.5 0 1 424.18 219.76
  Q 421.84 226.28 419.93 232.94
  C 409.46 269.62 397.79 306.04 386.34 342.42
  A 1.00 1.00 0.0 0 0 387.31 343.72
  C 391.24 343.64 394.73 343.68 398.49 345.13
  Q 400.36 345.85 402.37 345.81
  A 0.79 0.78 -13.6 0 1 403.09 346.24
  L 403.24 346.52
  A 0.65 0.64 67.5 0 0 404.00 346.84
  Q 405.36 346.40 406.17 347.34
  A 1.01 0.97 69.1 0 0 406.92 347.69
  C 411.21 347.72 412.59 349.69 416.07 351.22
  Q 417.03 351.64 418.04 352.21
  A 1.00 1.00 0.0 0 0 419.46 351.72
  Q 421.51 346.69 423.04 341.52
  C 428.87 321.76 435.20 302.13 441.14 282.39
  C 441.91 279.83 443.12 276.81 443.94 273.97
  Q 445.62 268.12 445.64 268.05
  Q 455.33 237.16 464.75 206.11
  A 1.00 1.00 0.0 0 0 464.18 204.90
  C 461.46 203.75 460.06 201.56 457.65 200.12
  Z"
/>
<path fill="#c4b0b6" d="
  M -0.02 145.69
  L 0.00 91.44
  Q 2.32 91.13 3.21 89.43
  C 11.54 73.31 25.65 63.57 42.59 58.88
  C 51.88 56.30 60.87 57.00 69.89 59.72
  C 74.66 61.15 79.02 64.28 83.35 67.00
  C 86.66 69.07 89.57 69.15 92.08 72.74
  C 94.41 76.09 97.84 77.15 99.65 80.91
  C 101.63 85.03 103.98 87.71 106.75 93.15
  A 0.52 0.51 -34.8 0 1 106.63 93.77
  C 106.25 94.10 108.86 100.71 109.00 101.13
  C 110.16 104.56 109.13 107.58 111.28 111.17
  A 0.98 0.98 0.0 0 1 111.42 111.80
  C 111.05 114.78 111.24 118.10 110.97 120.65
  C 108.14 147.19 89.53 170.51 62.77 175.88
  A 0.20 0.19 -16.8 0 1 62.54 175.76
  C 62.31 175.17 58.28 176.03 57.67 176.17
  C 50.92 177.76 41.25 177.46 34.81 174.75
  C 32.91 173.95 30.89 173.97 29.15 173.13
  Q 25.24 171.25 22.00 168.31
  A 1.00 0.97 -22.9 0 0 21.33 168.05
  C 17.51 168.06 16.16 164.36 13.67 162.40
  C 9.23 158.92 5.87 154.68 3.20 149.71
  Q 3.07 149.47 2.85 149.33
  Q 0.76 148.03 -0.02 145.69
  Z
  M 31.22 75.48
  C 30.74 74.56 23.83 80.08 23.06 80.68
  Q 19.88 83.15 17.30 86.67
  C 7.84 99.53 4.09 112.32 6.00 128.77
  Q 8.05 146.52 21.53 157.76
  C 24.75 160.45 29.97 162.08 32.75 163.27
  Q 40.70 166.67 49.52 166.53
  Q 50.44 166.52 49.56 166.33
  L 48.79 166.16
  Q 48.55 166.11 48.79 166.08
  C 54.68 165.42 61.86 165.67 68.13 163.10
  Q 73.04 161.09 77.11 158.79
  C 90.79 151.06 99.38 132.03 99.10 116.98
  Q 99.09 116.25 99.32 116.54
  L 99.49 116.75
  Q 99.75 117.07 99.75 116.75
  L 99.75 112.39
  A 1.02 0.98 29.7 0 0 99.59 111.85
  Q 98.31 109.87 98.15 107.61
  C 97.94 104.59 97.27 102.82 96.75 100.17
  A 1.02 0.95 18.1 0 0 96.48 99.68
  Q 94.00 97.10 93.56 93.62
  A 1.07 1.03 22.9 0 0 93.35 93.13
  Q 91.44 90.67 89.51 88.22
  C 87.79 86.03 85.26 84.71 83.33 82.45
  C 81.93 80.82 78.24 77.79 76.57 76.82
  C 75.68 76.29 64.69 69.59 62.47 70.64
  A 0.96 0.92 -51.3 0 1 61.85 70.72
  Q 45.76 67.50 31.79 75.65
  A 0.42 0.41 61.3 0 1 31.22 75.48
  Z"
/>
<path fill="#e1c6ce" d="
  M 406.03 118.42
  C 396.30 125.22 388.13 129.17 376.50 127.73
  Q 375.53 127.61 375.86 128.11
  A 0.50 0.48 74.8 0 0 376.26 128.35
  L 381.70 128.62
  Q 391.02 129.07 381.70 129.43
  Q 373.60 129.75 366.50 125.02
  C 362.36 122.25 359.83 119.72 356.39 116.20
  C 346.31 105.87 344.01 93.02 350.43 79.67
  A 0.41 0.17 -10.0 0 1 350.67 79.52
  Q 350.76 79.49 350.82 79.38
  C 352.65 75.70 355.66 72.49 357.85 69.35
  Q 360.36 65.74 363.68 62.77
  A 0.98 0.98 0.0 0 1 364.32 62.51
  L 365.20 62.49
  Q 365.42 62.49 365.62 62.38
  C 379.02 55.63 394.51 56.69 405.51 67.44
  C 407.69 69.58 410.19 70.98 411.66 73.61
  Q 413.52 76.94 414.92 80.48
  C 417.93 88.12 419.39 91.06 417.70 98.52
  Q 414.81 111.29 406.54 118.83
  Q 406.18 119.16 406.23 118.75
  L 406.25 118.50
  Q 406.28 118.25 406.03 118.42
  Z"
/>
<path fill="#d1b8bf" d="
  M 31.79 75.65
  Q 45.76 67.50 61.85 70.72
  A 0.96 0.92 -51.3 0 0 62.47 70.64
  C 64.69 69.59 75.68 76.29 76.57 76.82
  C 78.24 77.79 81.93 80.82 83.33 82.45
  C 85.26 84.71 87.79 86.03 89.51 88.22
  Q 91.44 90.67 93.35 93.13
  A 1.07 1.03 22.9 0 1 93.56 93.62
  Q 94.00 97.10 96.48 99.68
  A 1.02 0.95 18.1 0 1 96.75 100.17
  C 97.27 102.82 97.94 104.59 98.15 107.61
  Q 98.31 109.87 99.59 111.85
  A 1.02 0.98 29.7 0 1 99.75 112.39
  L 99.75 116.75
  Q 99.75 117.07 99.49 116.75
  L 99.32 116.54
  Q 99.09 116.25 99.10 116.98
  C 99.38 132.03 90.79 151.06 77.11 158.79
  Q 73.04 161.09 68.13 163.10
  C 61.86 165.67 54.68 165.42 48.79 166.08
  Q 48.55 166.11 48.79 166.16
  L 49.56 166.33
  Q 50.44 166.52 49.52 166.53
  Q 40.70 166.67 32.75 163.27
  C 29.97 162.08 24.75 160.45 21.53 157.76
  Q 8.05 146.52 6.00 128.77
  C 4.09 112.32 7.84 99.53 17.30 86.67
  Q 19.88 83.15 23.06 80.68
  C 23.83 80.08 30.74 74.56 31.22 75.48
  A 0.42 0.41 61.3 0 0 31.79 75.65
  Z
  M 85.04 124.69
  L 85.60 115.43
  A 1.00 0.99 24.5 0 0 85.31 114.66
  Q 84.91 114.27 84.76 113.74
  C 83.49 109.22 81.02 102.63 77.57 99.34
  Q 76.88 98.69 76.42 97.86
  Q 76.02 97.15 76.71 97.58
  L 76.99 97.75
  Q 77.54 98.09 77.22 97.49
  C 75.07 93.44 72.00 92.73 68.44 90.82
  C 54.53 83.33 37.99 88.93 28.36 100.71
  Q 28.23 100.86 27.98 101.56
  Q 27.91 101.77 27.76 102.02
  C 20.20 114.47 19.05 131.56 30.21 142.42
  C 31.40 143.58 33.27 144.11 34.36 145.96
  A 0.97 0.97 0.0 0 0 34.78 146.35
  Q 35.95 146.93 39.27 149.26
  C 42.21 151.31 47.62 151.51 52.00 151.70
  C 58.31 151.96 64.52 151.29 69.77 147.52
  Q 81.28 139.25 85.20 125.38
  C 85.27 125.13 85.28 125.13 85.06 125.00
  A 0.35 0.04 -87.3 0 1 85.04 124.69
  Z"
/>
<path fill="#f1555d" d="
  M 255.12 117.62
  Q 332.47 176.75 409.62 235.87
  Q 411.54 237.35 410.85 239.57
  L 378.77 343.15
  A 1.01 1.00 -80.2 0 1 377.77 343.86
  L 369.91 343.53
  A 1.01 1.00 -80.1 0 1 369.00 342.23
  L 395.45 256.64
  A 1.02 1.01 27.6 0 0 395.10 255.55
  Q 292.17 176.96 190.06 98.95
  Q 187.37 96.90 184.88 94.70
  A 1.00 1.00 0.0 0 0 183.61 94.66
  L 139.01 128.68
  Q 137.61 129.75 137.41 128.00
  L 136.84 122.99
  Q 136.65 121.33 139.02 119.51
  L 197.70 74.65
  A 1.00 1.00 0.0 0 1 198.92 74.65
  Q 227.01 96.13 255.12 117.62
  Z"
/>
<path fill="#e7c4cf" d="
  M 85.06 125.00
  C 85.28 125.13 85.27 125.13 85.20 125.38
  Q 81.28 139.25 69.77 147.52
  C 64.52 151.29 58.31 151.96 52.00 151.70
  C 47.62 151.51 42.21 151.31 39.27 149.26
  Q 35.95 146.93 34.78 146.35
  A 0.97 0.97 0.0 0 1 34.36 145.96
  C 33.27 144.11 31.40 143.58 30.21 142.42
  C 19.05 131.56 20.20 114.47 27.76 102.02
  Q 27.91 101.77 27.98 101.56
  Q 28.23 100.86 28.36 100.71
  C 37.99 88.93 54.53 83.33 68.44 90.82
  C 72.00 92.73 75.07 93.44 77.22 97.49
  Q 77.54 98.09 76.99 97.75
  L 76.71 97.58
  Q 76.02 97.15 76.42 97.86
  Q 76.88 98.69 77.57 99.34
  C 81.02 102.63 83.49 109.22 84.76 113.74
  Q 84.91 114.27 85.31 114.66
  A 1.00 0.99 24.5 0 1 85.60 115.43
  L 85.04 124.69
  A 0.35 0.04 -87.3 0 0 85.06 125.00
  Z"
/>
<path fill="#3fbbf5" d="
  M 353.25 251.21
  Q 352.36 251.17 352.92 252.03
  A 1.00 1.00 0.0 0 1 352.34 253.54
  Q 347.56 254.82 342.82 254.81
  Q 342.03 254.81 339.99 255.65
  A 0.66 0.64 -8.6 0 0 339.59 256.18
  Q 339.55 256.62 339.18 256.33
  A 0.83 0.80 59.7 0 0 338.58 256.16
  Q 333.29 256.83 329.04 260.03
  A 1.00 0.99 79.6 0 0 328.66 260.59
  L 328.21 262.50
  L 156.30 131.09
  A 0.99 0.98 44.7 0 0 155.09 131.09
  L 135.89 145.81
  Q 134.44 146.93 134.29 145.11
  Q 133.72 138.45 139.58 134.06
  Q 154.51 122.87 169.18 111.54
  A 1.00 1.00 0.0 0 1 170.40 111.54
  L 353.25 251.21
  Z"
/>
<path fill="#abfaf9" d="
  M 126.65 167.97
  L 122.76 170.64
  Q 119.83 172.65 121.62 169.57
  Q 123.50 166.34 125.47 163.16
  C 129.48 156.68 134.87 152.46 141.00 148.34
  A 1.02 1.02 0.0 0 1 142.17 148.38
  L 354.12 310.27
  A 0.99 0.99 0.0 0 1 354.47 311.36
  Q 348.72 329.57 342.97 348.41
  C 341.48 353.27 336.08 356.66 331.73 358.63
  Q 329.70 359.55 330.36 357.42
  L 338.94 329.82
  A 0.99 0.99 0.0 0 0 338.59 328.73
  Q 236.11 250.51 134.73 173.03
  Q 131.31 170.42 127.79 167.98
  A 1.01 1.00 45.3 0 0 126.65 167.97
  Z"
/>
<path fill="#cd9a82" d="
  M 444.33 190.09
  C 448.56 193.29 453.17 197.45 457.65 200.12
  C 460.06 201.56 461.46 203.75 464.18 204.90
  A 1.00 1.00 0.0 0 1 464.75 206.11
  Q 455.33 237.16 445.64 268.05
  Q 445.62 268.12 443.94 273.97
  C 443.12 276.81 441.91 279.83 441.14 282.39
  C 435.20 302.13 428.87 321.76 423.04 341.52
  Q 421.51 346.69 419.46 351.72
  A 1.00 1.00 0.0 0 1 418.04 352.21
  Q 417.03 351.64 416.07 351.22
  C 412.59 349.69 411.21 347.72 406.92 347.69
  A 1.01 0.97 69.1 0 1 406.17 347.34
  Q 405.36 346.40 404.00 346.84
  A 0.65 0.64 67.5 0 1 403.24 346.52
  L 403.09 346.24
  A 0.79 0.78 -13.6 0 0 402.37 345.81
  Q 400.36 345.85 398.49 345.13
  C 394.73 343.68 391.24 343.64 387.31 343.72
  A 1.00 1.00 0.0 0 1 386.34 342.42
  C 397.79 306.04 409.46 269.62 419.93 232.94
  Q 421.84 226.28 424.18 219.76
  A 1.00 0.99 -61.5 0 0 423.85 218.63
  Q 410.58 208.38 397.21 198.26
  Q 394.87 196.48 383.12 187.34
  Q 376.34 182.07 369.48 177.15
  Q 367.62 175.82 369.86 175.36
  Q 373.89 174.53 377.70 176.03
  Q 379.29 176.65 386.13 176.18
  A 0.99 0.98 15.2 0 0 386.88 175.76
  C 387.72 174.54 394.58 175.15 396.13 175.31
  A 0.80 0.79 -73.5 0 0 396.93 174.87
  L 397.07 174.58
  A 0.52 0.51 14.8 0 1 397.56 174.30
  C 402.13 174.59 405.39 172.84 409.70 171.61
  C 411.79 171.02 414.08 169.45 416.64 169.20
  A 1.05 1.03 -28.5 0 1 417.34 169.40
  Q 423.72 174.19 429.98 179.08
  C 433.23 181.62 437.51 185.18 441.36 187.36
  C 442.59 188.06 443.29 189.30 444.33 190.09
  Z"
/>
<path fill="#020202" d="
  M 0.10 190.65
  L 0.00 183.19
  Q 2.44 184.35 4.35 186.15
  A 1.00 1.00 0.0 0 1 4.24 187.69
  L 0.10 190.65
  Z"
/>
<path fill="#ff9d5e" d="
  M 298.25 409.79
  L 297.50 409.21
  C 300.76 401.11 303.13 390.98 305.04 384.58
  Q 307.77 375.40 310.59 366.60
  A 1.00 0.99 27.7 0 0 310.24 365.50
  L 99.57 204.55
  A 1.00 1.00 0.0 0 0 98.35 204.55
  L 0.27 279.30
  L -0.23 271.14
  L 112.53 185.12
  A 1.00 0.99 44.7 0 1 113.74 185.12
  L 325.63 346.98
  A 1.00 0.99 27.1 0 1 325.98 348.06
  C 323.31 356.90 321.41 366.63 315.90 373.90
  C 307.50 384.99 301.68 395.59 299.01 409.31
  Q 298.93 409.74 298.25 409.79
  Z"
/>
<path fill="#ca987d" d="
  M 0.50 220.04
  L 0.00 220.69
  L 0.00 200.44
  L 0.46 194.50
  L 1.04 193.00
  Q 4.50 191.53 7.16 188.81
  A 1.00 1.00 0.0 0 1 8.47 188.71
  Q 16.39 194.57 25.67 197.77
  Q 27.42 198.37 25.96 199.51
  L 0.38 219.27
  A 0.39 0.39 0.0 0 0 0.24 219.71
  Q 0.29 219.90 0.50 220.04
  Z"
/>
<path fill="#ccbb13" d="
  M 500.00 192.31
  L 499.99 284.29
  Q 495.38 284.27 492.27 287.65
  Q 490.91 289.13 489.49 290.04
  C 486.87 291.72 484.66 294.40 482.35 295.98
  C 478.48 298.62 475.32 301.97 470.23 302.80
  C 466.01 303.49 466.66 307.60 463.29 308.00
  Q 481.01 250.47 498.62 192.92
  Q 499.00 191.69 500.00 192.31
  Z"
/>
<path fill="#020202" d="
  M 1.04 193.00
  L 0.46 194.50
  L 0.00 193.69
  L 0.00 192.94
  Q 0.60 191.52 1.04 193.00
  Z"
/>
<path fill="#939192" d="
  M 0.00 193.69
  L 0.46 194.50
  L 0.00 200.44
  L 0.00 193.69
  Z"
/>
<path fill="#a6fffc" d="
  M 0.37 264.19
  L -0.14 256.00
  Q 34.21 229.78 68.60 203.59
  C 72.69 200.48 79.42 199.09 83.86 198.03
  Q 88.45 196.94 84.70 199.80
  L 0.37 264.19
  Z"
/>
<path fill="#f04f55" d="
  M 0.28 234.34
  L 0.00 220.69
  L 0.50 220.04
  Q 1.73 220.93 1.94 222.39
  A 1.01 1.00 -22.7 0 0 3.54 223.04
  L 33.55 200.08
  A 1.00 1.00 0.0 0 1 34.38 199.89
  L 41.02 201.43
  Q 43.11 201.92 41.40 203.21
  L 0.28 234.34
  Z"
/>
<path fill="#3fbbf5" d="
  M 0.00 248.44
  L -0.28 241.08
  Q 21.18 224.75 42.57 208.33
  C 48.78 203.56 51.45 200.90 58.71 202.58
  Q 60.77 203.06 59.09 204.35
  L 0.90 248.96
  A 0.52 0.51 -32.3 0 1 0.13 248.79
  Q 0.05 248.64 0.00 248.44
  Z"
/>
<path fill="#999395" d="
  M 297.50 409.21
  Q 295.52 412.16 294.00 417.25
  Q 285.82 444.61 268.19 500.00
  L 261.94 500.00
  L 297.63 384.59
  A 1.01 1.00 -63.1 0 0 297.28 383.50
  L 85.39 221.58
  A 0.99 0.98 44.7 0 0 84.18 221.58
  L -0.23 286.14
  L 0.27 279.30
  L 98.35 204.55
  A 1.00 1.00 0.0 0 1 99.57 204.55
  L 310.24 365.50
  A 1.00 0.99 27.7 0 1 310.59 366.60
  Q 307.77 375.40 305.04 384.58
  C 303.13 390.98 300.76 401.11 297.50 409.21
  Z"
/>
<path fill="#ffd452" d="
  M 261.94 500.00
  L 252.19 500.00
  L 282.21 403.37
  A 0.99 0.99 0.0 0 0 281.86 402.28
  L 71.19 241.32
  A 1.00 0.98 44.9 0 0 69.98 241.31
  L 0.28 294.33
  L -0.23 286.14
  L 84.18 221.58
  A 0.99 0.98 44.7 0 1 85.39 221.58
  L 297.28 383.50
  A 1.01 1.00 -63.1 0 1 297.63 384.59
  L 261.94 500.00
  Z"
/>
<path fill="#939192" d="
  M 252.19 500.00
  L 245.19 500.00
  L 269.40 421.80
  A 1.02 1.00 -58.3 0 0 269.18 420.82
  Q 266.99 418.46 263.19 415.56
  Q 160.26 336.92 57.29 258.31
  A 1.00 0.99 -40.0 0 0 56.23 258.22
  Q 53.56 259.58 51.18 261.41
  Q 25.51 281.08 -0.15 300.75
  L 0.28 294.33
  L 69.98 241.31
  A 1.00 0.98 44.9 0 1 71.19 241.32
  L 281.86 402.28
  A 0.99 0.99 0.0 0 1 282.21 403.37
  L 252.19 500.00
  Z"
/>
<path fill="#55b9f0" d="
  M 353.25 251.21
  L 381.33 272.75
  Q 382.96 273.99 382.32 276.06
  L 361.31 344.25
  A 0.99 0.99 0.0 0 1 360.86 344.83
  Q 356.84 347.15 351.99 347.61
  A 1.00 1.00 0.0 0 1 350.94 346.32
  L 367.29 293.29
  A 1.00 0.99 -62.8 0 0 366.95 292.20
  L 328.21 262.50
  L 328.66 260.59
  A 1.00 0.99 79.6 0 1 329.04 260.03
  Q 333.29 256.83 338.58 256.16
  A 0.83 0.80 59.7 0 1 339.18 256.33
  Q 339.55 256.62 339.59 256.18
  A 0.66 0.64 -8.6 0 1 339.99 255.65
  Q 342.03 254.81 342.82 254.81
  Q 347.56 254.82 352.34 253.54
  A 1.00 1.00 0.0 0 0 352.92 252.03
  Q 352.36 251.17 353.25 251.21
  Z"
/>
<path fill="#45db6e" d="
  M 245.19 500.00
  L 218.69 500.00
  Q 217.15 498.78 215.03 498.87
  Q 218.31 498.95 216.80 497.89
  A 1.01 1.00 26.2 0 1 216.42 496.78
  Q 218.16 491.13 214.17 486.66
  A 0.99 0.99 0.0 0 1 213.93 486.17
  Q 213.65 484.59 213.46 483.01
  C 213.11 480.15 211.62 478.12 212.21 474.82
  A 1.01 0.99 -63.4 0 0 211.92 473.91
  L 209.43 471.57
  A 1.04 1.02 -73.6 0 1 209.13 471.01
  Q 208.59 467.95 205.92 466.30
  A 1.00 0.98 12.4 0 1 205.45 465.58
  Q 205.15 463.36 203.18 462.29
  A 0.99 0.99 0.0 0 1 202.71 461.08
  Q 203.63 458.51 200.94 457.73
  A 1.03 0.98 -11.8 0 1 200.47 457.44
  Q 198.40 455.14 196.33 452.85
  C 194.83 451.19 192.63 450.07 191.11 448.06
  A 0.93 0.90 -8.9 0 0 190.63 447.72
  C 188.91 447.15 187.71 446.92 186.39 445.53
  C 181.71 440.55 175.60 438.15 170.49 433.72
  C 169.35 432.74 167.71 432.64 166.76 432.02
  Q 162.22 429.04 157.37 426.55
  C 155.56 425.62 153.87 424.01 151.83 423.18
  Q 147.82 421.55 147.73 421.51
  Q 132.34 413.75 115.85 408.63
  C 114.44 408.19 113.14 407.16 111.54 406.83
  Q 109.20 406.37 108.31 405.91
  C 100.94 402.16 93.55 398.82 87.01 393.65
  C 85.38 392.36 82.85 391.14 80.99 389.02
  Q 76.79 384.22 73.83 380.36
  C 71.26 377.01 67.76 373.29 65.46 368.54
  Q 64.83 367.23 63.25 366.63
  A 1.08 1.04 -5.5 0 1 62.77 366.25
  C 59.84 361.89 56.89 359.23 52.84 355.91
  C 51.21 354.58 49.51 352.08 46.80 350.96
  Q 45.50 350.42 43.69 347.13
  A 1.03 1.01 -5.8 0 0 43.09 346.65
  C 40.77 345.98 38.91 344.07 37.51 343.20
  C 29.23 338.11 9.80 328.00 1.08 333.52
  A 1.01 1.00 -21.8 0 0 0.63 334.56
  Q 0.89 335.90 0.00 336.69
  L -0.15 300.75
  Q 25.51 281.08 51.18 261.41
  Q 53.56 259.58 56.23 258.22
  A 1.00 0.99 -40.0 0 1 57.29 258.31
  Q 160.26 336.92 263.19 415.56
  Q 266.99 418.46 269.18 420.82
  A 1.02 1.00 -58.3 0 1 269.40 421.80
  L 245.19 500.00
  Z"
/>
<path fill="#c6bc00" d="
  M 499.99 284.29
  L 500.00 500.00
  L 420.94 500.00
  Q 419.79 499.93 419.00 499.29
  C 423.53 496.39 428.47 493.44 432.39 490.22
  C 468.09 460.90 473.54 408.21 443.82 372.44
  A 1.01 1.00 34.4 0 1 443.64 371.51
  L 463.29 308.00
  C 466.66 307.60 466.01 303.49 470.23 302.80
  C 475.32 301.97 478.48 298.62 482.35 295.98
  C 484.66 294.40 486.87 291.72 489.49 290.04
  Q 490.91 289.13 492.27 287.65
  Q 495.38 284.27 499.99 284.29
  Z"
/>
<path fill="#54e063" d="
  M 218.69 500.00
  L 0.00 500.00
  L 0.00 336.69
  Q 0.89 335.90 0.63 334.56
  A 1.01 1.00 -21.8 0 1 1.08 333.52
  C 9.80 328.00 29.23 338.11 37.51 343.20
  C 38.91 344.07 40.77 345.98 43.09 346.65
  A 1.03 1.01 -5.8 0 1 43.69 347.13
  Q 45.50 350.42 46.80 350.96
  C 49.51 352.08 51.21 354.58 52.84 355.91
  C 56.89 359.23 59.84 361.89 62.77 366.25
  A 1.08 1.04 -5.5 0 0 63.25 366.63
  Q 64.83 367.23 65.46 368.54
  C 67.76 373.29 71.26 377.01 73.83 380.36
  Q 76.79 384.22 80.99 389.02
  C 82.85 391.14 85.38 392.36 87.01 393.65
  C 93.55 398.82 100.94 402.16 108.31 405.91
  Q 109.20 406.37 111.54 406.83
  C 113.14 407.16 114.44 408.19 115.85 408.63
  Q 132.34 413.75 147.73 421.51
  Q 147.82 421.55 151.83 423.18
  C 153.87 424.01 155.56 425.62 157.37 426.55
  Q 162.22 429.04 166.76 432.02
  C 167.71 432.64 169.35 432.74 170.49 433.72
  C 175.60 438.15 181.71 440.55 186.39 445.53
  C 187.71 446.92 188.91 447.15 190.63 447.72
  A 0.93 0.90 -8.9 0 1 191.11 448.06
  C 192.63 450.07 194.83 451.19 196.33 452.85
  Q 198.40 455.14 200.47 457.44
  A 1.03 0.98 -11.8 0 0 200.94 457.73
  Q 203.63 458.51 202.71 461.08
  A 0.99 0.99 0.0 0 0 203.18 462.29
  Q 205.15 463.36 205.45 465.58
  A 1.00 0.98 12.4 0 0 205.92 466.30
  Q 208.59 467.95 209.13 471.01
  A 1.04 1.02 -73.6 0 0 209.43 471.57
  L 211.92 473.91
  A 1.01 0.99 -63.4 0 1 212.21 474.82
  C 211.62 478.12 213.11 480.15 213.46 483.01
  Q 213.65 484.59 213.93 486.17
  A 0.99 0.99 0.0 0 0 214.17 486.66
  Q 218.16 491.13 216.42 496.78
  A 1.01 1.00 26.2 0 0 216.80 497.89
  Q 218.31 498.95 215.03 498.87
  Q 217.15 498.78 218.69 500.00
  Z"
/>
<path fill="#b1a3a7" d="
  M 396.87 499.88
  L 357.44 500.00
  Q 352.45 497.95 348.04 494.70
  A 1.02 1.01 55.3 0 0 347.19 494.54
  Q 345.38 495.01 343.47 494.67
  A 1.00 0.92 -16.5 0 1 342.96 494.42
  C 340.73 492.33 337.98 492.04 335.81 490.66
  C 325.68 484.19 317.60 473.20 312.26 463.42
  Q 312.21 463.33 312.18 463.23
  C 307.08 446.56 304.09 427.27 308.95 409.23
  C 316.89 379.72 341.22 358.27 371.58 354.42
  A 0.65 0.65 0.0 0 0 371.97 354.22
  L 372.14 354.04
  A 0.38 0.28 15.2 0 1 372.40 353.94
  C 376.59 353.92 380.76 352.86 384.82 353.85
  C 390.63 355.26 395.87 355.68 400.62 356.78
  Q 400.76 356.82 404.84 357.52
  C 407.75 358.03 410.44 360.18 412.41 361.21
  Q 415.63 362.91 418.78 364.72
  C 423.70 367.55 427.92 371.80 432.22 375.55
  C 432.85 376.09 432.91 376.99 433.47 377.51
  Q 438.82 382.50 442.01 389.03
  Q 442.39 389.82 444.09 392.01
  C 445.47 393.80 445.21 395.70 446.19 397.55
  C 449.64 404.10 450.54 410.95 451.78 418.98
  C 452.41 423.06 451.92 427.21 451.98 431.43
  A 0.90 0.89 59.8 0 1 451.85 431.93
  C 450.55 434.24 451.26 436.40 450.68 438.58
  Q 449.59 442.68 448.33 446.72
  C 446.52 452.56 442.97 458.03 440.05 463.49
  C 439.39 464.74 437.76 466.00 437.47 467.94
  A 1.14 1.06 -24.5 0 1 437.27 468.42
  C 429.67 477.95 422.77 483.64 414.96 489.61
  Q 411.94 491.92 409.52 493.17
  Q 403.16 496.45 396.87 499.88
  Z
  M 430.13 433.03
  Q 431.34 431.81 430.56 430.18
  A 1.03 1.00 -53.6 0 1 430.48 429.59
  Q 431.68 422.22 431.08 414.74
  A 1.02 1.01 21.9 0 0 430.83 414.16
  L 428.74 411.76
  A 1.00 0.99 28.8 0 1 428.51 410.98
  Q 428.99 407.16 426.24 404.43
  A 1.10 1.09 16.4 0 1 425.97 403.94
  C 425.32 401.04 423.40 399.27 422.53 396.66
  Q 421.92 394.83 421.12 393.07
  A 1.03 0.98 2.5 0 0 420.68 392.61
  C 417.02 390.64 415.29 387.35 412.45 385.13
  Q 410.63 383.71 408.79 382.32
  C 406.59 380.66 403.51 379.94 400.97 378.43
  C 399.37 377.48 398.45 375.64 395.83 375.53
  A 1.05 0.99 -21.3 0 1 395.21 375.28
  Q 394.27 374.44 393.55 374.20
  Q 386.67 371.90 379.45 372.43
  Q 377.15 372.60 375.20 373.82
  C 373.50 374.88 371.87 374.35 370.28 374.80
  Q 360.40 377.63 358.20 378.69
  Q 354.03 380.70 345.95 386.74
  C 342.46 389.35 339.85 393.19 336.60 396.36
  Q 335.19 397.73 331.16 405.60
  A 0.53 0.52 -54.2 0 0 331.25 406.19
  C 331.57 406.52 331.10 407.05 330.97 407.36
  C 324.39 423.37 325.99 436.23 330.96 453.05
  C 331.95 456.40 335.10 460.48 337.29 463.72
  C 338.21 465.09 340.70 466.70 341.19 468.04
  A 0.98 0.96 -89.5 0 0 341.75 468.62
  C 343.75 469.43 344.89 471.18 346.34 472.18
  Q 350.47 475.04 353.53 476.78
  Q 355.52 477.91 357.73 478.51
  Q 362.93 479.91 368.21 481.00
  C 370.28 481.43 372.09 481.01 374.21 480.97
  A 0.80 0.79 -0.4 0 0 375.00 480.18
  L 375.00 479.88
  A 0.64 0.63 -5.5 0 1 375.52 479.26
  C 380.67 478.28 385.77 478.66 390.87 477.82
  C 399.96 476.33 412.96 466.66 418.54 459.48
  Q 424.38 451.94 428.38 441.15
  Q 429.98 436.85 429.84 433.78
  A 1.00 0.99 66.3 0 1 430.13 433.03
  Z"
/>
<path fill="#d1b8bf" d="
  M 429.84 433.78
  Q 429.98 436.85 428.38 441.15
  Q 424.38 451.94 418.54 459.48
  C 412.96 466.66 399.96 476.33 390.87 477.82
  C 385.77 478.66 380.67 478.28 375.52 479.26
  A 0.64 0.63 -5.5 0 0 375.00 479.88
  L 375.00 480.18
  A 0.80 0.79 -0.4 0 1 374.21 480.97
  C 372.09 481.01 370.28 481.43 368.21 481.00
  Q 362.93 479.91 357.73 478.51
  Q 355.52 477.91 353.53 476.78
  Q 350.47 475.04 346.34 472.18
  C 344.89 471.18 343.75 469.43 341.75 468.62
  A 0.98 0.96 -89.5 0 1 341.19 468.04
  C 340.70 466.70 338.21 465.09 337.29 463.72
  C 335.10 460.48 331.95 456.40 330.96 453.05
  C 325.99 436.23 324.39 423.37 330.97 407.36
  C 331.10 407.05 331.57 406.52 331.25 406.19
  A 0.53 0.52 -54.2 0 1 331.16 405.60
  Q 335.19 397.73 336.60 396.36
  C 339.85 393.19 342.46 389.35 345.95 386.74
  Q 354.03 380.70 358.20 378.69
  Q 360.40 377.63 370.28 374.80
  C 371.87 374.35 373.50 374.88 375.20 373.82
  Q 377.15 372.60 379.45 372.43
  Q 386.67 371.90 393.55 374.20
  Q 394.27 374.44 395.21 375.28
  A 1.05 0.99 -21.3 0 0 395.83 375.53
  C 398.45 375.64 399.37 377.48 400.97 378.43
  C 403.51 379.94 406.59 380.66 408.79 382.32
  Q 410.63 383.71 412.45 385.13
  C 415.29 387.35 417.02 390.64 420.68 392.61
  A 1.03 0.98 2.5 0 1 421.12 393.07
  Q 421.92 394.83 422.53 396.66
  C 423.40 399.27 425.32 401.04 425.97 403.94
  A 1.10 1.09 16.4 0 0 426.24 404.43
  Q 428.99 407.16 428.51 410.98
  A 1.00 0.99 28.8 0 0 428.74 411.76
  L 430.83 414.16
  A 1.02 1.01 21.9 0 1 431.08 414.74
  Q 431.68 422.22 430.48 429.59
  A 1.03 1.00 -53.6 0 0 430.56 430.18
  Q 431.34 431.81 430.13 433.03
  A 1.00 0.99 66.3 0 0 429.84 433.78
  Z
  M 349.41 438.00
  C 353.70 446.47 356.50 453.34 366.19 456.66
  Q 368.55 457.46 370.99 457.04
  A 0.96 0.95 -38.3 0 1 371.53 457.10
  Q 376.07 458.90 380.57 457.64
  C 383.64 456.78 385.93 456.69 388.80 456.57
  Q 389.02 456.56 389.22 456.45
  L 394.27 453.80
  Q 394.43 453.72 394.54 453.60
  C 396.54 451.45 399.19 450.70 400.96 448.80
  Q 414.71 433.99 408.26 413.81
  Q 407.80 412.38 403.20 406.74
  A 1.03 1.02 -14.3 0 0 402.62 406.40
  Q 401.13 406.10 400.72 404.63
  Q 400.66 404.39 400.48 404.21
  C 392.52 395.85 379.19 395.13 368.95 397.46
  C 364.56 398.46 360.89 401.59 357.34 404.29
  Q 354.35 406.56 352.52 409.48
  C 347.16 418.01 344.63 426.59 348.47 436.43
  Q 348.51 436.53 348.56 437.06
  Q 348.58 437.27 348.73 437.39
  Q 349.38 437.95 349.41 438.00
  Z"
/>
<path fill="#e7c4cf" d="
  M 348.73 437.39
  Q 348.58 437.27 348.56 437.06
  Q 348.51 436.53 348.47 436.43
  C 344.63 426.59 347.16 418.01 352.52 409.48
  Q 354.35 406.56 357.34 404.29
  C 360.89 401.59 364.56 398.46 368.95 397.46
  C 379.19 395.13 392.52 395.85 400.48 404.21
  Q 400.66 404.39 400.72 404.63
  Q 401.13 406.10 402.62 406.40
  A 1.03 1.02 -14.3 0 1 403.20 406.74
  Q 407.80 412.38 408.26 413.81
  Q 414.71 433.99 400.96 448.80
  C 399.19 450.70 396.54 451.45 394.54 453.60
  Q 394.43 453.72 394.27 453.80
  L 389.22 456.45
  Q 389.02 456.56 388.80 456.57
  C 385.93 456.69 383.64 456.78 380.57 457.64
  Q 376.07 458.90 371.53 457.10
  A 0.96 0.95 -38.3 0 0 370.99 457.04
  Q 368.55 457.46 366.19 456.66
  C 356.50 453.34 353.70 446.47 349.41 438.00
  Q 349.38 437.95 348.73 437.39
  Z"
/>
<path fill="#ff9230" d="
  M 297.50 409.21
  L 298.25 409.79
  Q 299.95 411.64 299.49 415.26
  Q 298.09 426.28 299.57 435.95
  Q 299.60 436.18 299.53 436.40
  L 279.69 500.00
  L 268.19 500.00
  Q 285.82 444.61 294.00 417.25
  Q 295.52 412.16 297.50 409.21
  Z"
/>
<path fill="#a6fffc" d="
  M 295.94 500.00
  L 286.44 500.00
  L 300.65 453.92
  Q 301.44 451.38 302.52 453.81
  L 306.96 463.76
  A 0.95 0.94 -48.7 0 1 307.00 464.46
  L 295.94 500.00
  Z"
/>
<path fill="#3fbbf5" d="
  M 313.20 500.09
  L 303.13 500.07
  L 311.44 474.27
  Q 312.02 472.47 313.18 473.96
  L 318.59 480.91
  A 1.01 1.01 0.0 0 1 318.76 481.82
  L 313.20 500.09
  Z"
/>
<path fill="#f1555d" d="
  M 329.44 500.00
  L 320.19 500.00
  L 323.29 489.43
  Q 324.22 486.25 326.69 488.26
  L 331.33 492.05
  A 1.00 1.00 0.0 0 1 331.65 493.13
  L 329.44 500.00
  Z"
/>
<path fill="#939192" d="
  M 419.00 499.29
  Q 419.79 499.93 420.94 500.00
  L 414.94 500.00
  L 419.00 499.29
  Z"
/>
<path fill="#939192" d="
  M 345.69 500.00
  L 339.94 500.00
  Q 342.81 499.37 345.69 500.00
  Z"
/>
</svg>
